<svg width="480" height="270" viewBox="0 0 480 270" xmlns="http://www.w3.org/2000/svg" xmlns:xlink="http://www.w3.org/1999/xlink"><svg viewBox="-65 262 480 270" width="480" height="270" id="480x270"><style>.st0{fill:url(#aSVGID_1_)}.st1{fill:#d1d3d4}</style><linearGradient id="aSVGID_1_" gradientUnits="userSpaceOnUse" x1="-122.843" y1="955.49" x2="-122.843" y2="849.608" gradientTransform="matrix(2.55 0 0 -2.55 488.25 2698.5)"><stop offset="0" stop-color="#4D4D4D"/><stop offset="1" stop-color="#bbb"/></linearGradient><path class="st0" d="M-65 262h480v270H-65z"/><path class="st1" d="M324.3 292h-23.4v5.8h23.5V292h-.1zm-.7 5h-21.9v-4.2h21.9v4.2zm-60.5 163.3h27.7V442h-27.7v18.3zm.9-17.5h26v16.8h-26v-16.8zm26.9-24.5h-27.7v18.5h27.7v-18.5zm-.8 17.9h-26v-16.9h26v16.9zm114.5 68.1H212.1c-1.5 0-2.5-1.3-2.5-2.8v-2c0-1.6 1.1-2.8 2.5-2.8h19.2v-76.9h-22.9s-.1 0-.1-.1c0 0 0-.3.1-.3l.1-.1.1-.1 2.6-3h193.3v-.8H212l48.2-57.2c.4-.3.8-.5 1.3-.8 1.7-1.1 3-2.1 6.1-2.1 4 0 7.4 2.8 7.4 2.8l.3.1h126.6l.3-.1s1.1-.8 2.6-1.6v-.8c-1.8.8-3 1.8-3 1.8H275.5s-1.5-1.1-3.3-2l.7.1 14.9-17 14.4 16.1h4.6c.5 0 .8-1.1.4-1.7L289 330.7c-.3-.4-.7-.7-1.1-.7-.4 0-.8.3-1.1.7L268.7 353c-.4.5-.4.9.5 1.5-.5-.1-.9-.1-1.6-.1-4.2 0-5.5 1.7-7.9 3l-46.9 55.5 44.7-82.9h147.3v-.8h-83.5V301c0-.3-.3-.5-.5-.5h-15.9c-.3 0-.5.3-.5.5v28.1h-47.2l-46.8 86.8-2.2 2.5c-.9.5-.7 2.1.4 2.1h22.1v75.2h-18.5c-1.8 0-3.3 1.7-3.3 3.6v2c0 2 1.6 3.6 3.3 3.6h192.5v-.6zM269.2 353.4l18.2-22.1c.1-.3.3-.3.4-.3.1 0 .3.1.4.3l18.2 22.2v.4h-4L288.3 338l-.7-.7-.5.7-14.5 16.5-3.2-.9c-.1.1-.2.1-.2-.2zm35.8-52h15.2v27.5H305v-27.5zm-45.2 158.8v-41.9h-13.2v41.9h13.2zm-12.4-40.8h11.8v40.2h-11.8v-40.2zM414.1 442h-27.7v18.4h27.7V442zm-.9 17.5h-26v-16.8h26v16.8zm-26.8-22.6h27.7v-18.5h-27.7v18.5zm.8-17.7h26v16.9h-26v-16.9zM272.6 505h192.5c1.8 0 3.3-1.7 3.3-3.6v-2c0-2-1.6-3.6-3.3-3.6h-18.2v-75.2H469c1.1 0 1.5-1.6.4-2.1l-2.2-2.5-46.8-86.8H272.6v.8H420l44.7 82.9-46.9-55.5c-2.4-1.5-3.8-3-7.9-3-.5 0-.9 0-1.6.1.9-.4.9-.8.5-1.5l-18.2-22.3c-.3-.4-.7-.7-1.1-.7-.4 0-.8.3-1.1.7L370.1 353c-.4.5-.1 1.7.4 1.7h4.6l14.4-16.1 14.9 17 .7-.1c-2 .8-3.3 2-3.3 2H275.5s-1.3-.9-3-1.8v.8c1.6.7 2.6 1.6 2.6 1.6l.3.1H402l.3-.1s3.4-2.8 7.4-2.8c3 0 4.5.9 6.1 2.1.4.3.8.5 1.3.8l48.2 57.2H272.6v.8h193.3l2.6 3 .1.1.1.1c.1 0 .1.3.1.3 0 .1-.1.1-.1.1H446v76.9h19.2c1.5 0 2.5 1.3 2.5 2.8v2c0 1.6-1.1 2.8-2.5 2.8H272.6v.7zm135.5-151.6c0 .1-.1.1-.3.1l-3.2.9-14.6-16.6-.5-.7-.7.7-14.1 15.9h-4v-.4l18.2-22.2c.1-.1.3-.3.4-.3.1 0 .3 0 .4.3l18.4 22.3zm22.6 106.8v-41.9h-13.2v41.9h13.2zm-.8-.7h-11.8v-40.2h11.8v40.2zm-68.7 10.7h-8.3v-43.9c-4-3.6-9.2-5.5-14.7-5.5-5.3 0-10.6 1.8-14.7 5.5v43.9h-9.9l-10.2 32.5h70l-12.2-32.5zm-36.8-43.3c3.6-3.2 8.5-5 13.9-5 5.3 0 10 1.8 13.9 5v43.3h-27.7v-43.3zm-10.2 44.3h46.4l5.7 15.2h-56.8l4.7-15.2zm-5 16h57.5l2 5h-60.9l1.4-5zm-1.8 5.8h61.3v-.5l3.6 9.5h-67.8l2.9-9zm-13.2-74.4v41.8h12.6v-41.9c-.1.1-12.6.1-12.6.1zm11.7 40.9h-11v-40.2h11v40.2z"/></svg></svg>