<?xml version="1.0" encoding="utf-8"?>
<!-- Generator: Adobe Illustrator 18.0.0, SVG Export Plug-In . SVG Version: 6.00 Build 0)  -->
<!DOCTYPE svg PUBLIC "-//W3C//DTD SVG 1.1//EN" "http://www.w3.org/Graphics/SVG/1.1/DTD/svg11.dtd">
<svg version="1.1" id="Layer_1" xmlns="http://www.w3.org/2000/svg" xmlns:xlink="http://www.w3.org/1999/xlink" x="0px" y="0px"
	 viewBox="-120 -66 240 180" enable-background="new -120 -66 240 180" xml:space="preserve">
<linearGradient id="SVGID_1_" gradientUnits="userSpaceOnUse" x1="9.693485e-08" y1="-66" x2="1.050162e-07" y2="114">
	<stop  offset="0" style="stop-color:#4D4D4D"/>
	<stop  offset="1" style="stop-color:#BBBBBB"/>
</linearGradient>
<rect x="-120" y="-66" fill="url(#SVGID_1_)" width="240" height="180"/>
<g enable-background="new    ">
	<path fill="#FFFFFF" d="M-95.7-29.6v-14h5.1c0.9,0,1.7,0.1,2.3,0.3c0.6,0.2,1.1,0.5,1.4,0.9c0.3,0.4,0.6,0.8,0.7,1.3s0.2,1,0.2,1.5
		c0,0.8-0.2,1.4-0.5,1.9c-0.3,0.5-0.7,0.9-1.2,1.2c-0.5,0.3-1.1,0.5-1.7,0.6c-0.6,0.1-1.3,0.2-1.9,0.2h-3v6.2H-95.7z M-91.3-37
		c0.6,0,1.2,0,1.7-0.1c0.5-0.1,0.9-0.2,1.3-0.4c0.3-0.2,0.6-0.5,0.8-0.9c0.2-0.4,0.3-0.9,0.3-1.5c0-0.9-0.3-1.6-0.9-2
		c-0.6-0.5-1.5-0.7-2.8-0.7h-3.4v5.6H-91.3z"/>
	<path fill="#FFFFFF" d="M-83.9-29.6v-14h1.2v5.3c0.5-0.5,1-0.9,1.5-1.2c0.5-0.3,1.1-0.5,1.8-0.5c0.6,0,1.2,0.1,1.7,0.3
		c0.5,0.2,1,0.6,1.3,1.1c0.2,0.4,0.4,0.7,0.4,1.1c0,0.4,0.1,0.8,0.1,1.2v6.6h-1.2v-6.6c0-0.9-0.2-1.6-0.6-2c-0.4-0.5-1.1-0.7-2-0.7
		c-0.4,0-0.7,0.1-1,0.2c-0.3,0.1-0.6,0.3-0.8,0.4s-0.4,0.4-0.6,0.6c-0.2,0.2-0.3,0.5-0.4,0.7c-0.1,0.3-0.2,0.6-0.2,0.9
		c0,0.3,0,0.6,0,1v5.4H-83.9z"/>
	<path fill="#FFFFFF" d="M-69-29.4c-0.7,0-1.3-0.1-1.8-0.4c-0.6-0.2-1.1-0.6-1.5-1c-0.4-0.4-0.8-1-1-1.7c-0.2-0.7-0.4-1.4-0.4-2.3
		c0-0.7,0.1-1.4,0.3-2.1c0.2-0.6,0.5-1.2,0.9-1.7s0.9-0.9,1.5-1.1c0.6-0.3,1.3-0.4,2.1-0.4c0.8,0,1.5,0.1,2.1,0.4
		c0.6,0.3,1.1,0.7,1.5,1.1s0.7,1,0.9,1.7c0.2,0.6,0.3,1.3,0.3,2.1c0,0.8-0.1,1.5-0.3,2.2c-0.2,0.6-0.5,1.2-0.9,1.7
		c-0.4,0.5-0.9,0.8-1.5,1.1C-67.7-29.5-68.3-29.4-69-29.4z M-65.6-34.7c0-0.6-0.1-1.2-0.2-1.7c-0.1-0.5-0.3-1-0.6-1.4
		c-0.3-0.4-0.6-0.7-1-0.9s-1-0.3-1.6-0.3c-0.6,0-1.1,0.1-1.6,0.4s-0.8,0.6-1.1,1s-0.5,0.8-0.6,1.4s-0.2,1-0.2,1.6
		c0,0.6,0.1,1.2,0.2,1.7c0.2,0.5,0.4,1,0.7,1.4c0.3,0.4,0.6,0.7,1.1,0.9c0.4,0.2,0.9,0.3,1.5,0.3c0.6,0,1.1-0.1,1.6-0.4
		c0.4-0.2,0.8-0.6,1.1-1s0.5-0.9,0.6-1.4C-65.7-33.6-65.6-34.1-65.6-34.7z"/>
	<path fill="#FFFFFF" d="M-58.7-29.6c-0.1,0-0.3,0.1-0.6,0.1s-0.5,0.1-0.8,0.1c-0.6,0-1-0.1-1.3-0.4c-0.3-0.3-0.5-0.8-0.5-1.6v-7.4
		h-1.4v-1h1.4v-2.8h1.2v2.8h1.9v1h-1.9v6.9c0,0.2,0,0.5,0,0.6c0,0.2,0,0.3,0.1,0.4c0.1,0.1,0.2,0.2,0.3,0.2c0.1,0.1,0.3,0.1,0.6,0.1
		c0.2,0,0.3,0,0.5,0c0.2,0,0.3-0.1,0.5-0.1V-29.6z"/>
	<path fill="#FFFFFF" d="M-52.8-29.4c-0.7,0-1.3-0.1-1.8-0.4c-0.6-0.2-1.1-0.6-1.5-1c-0.4-0.4-0.8-1-1-1.7c-0.2-0.7-0.4-1.4-0.4-2.3
		c0-0.7,0.1-1.4,0.3-2.1c0.2-0.6,0.5-1.2,0.9-1.7s0.9-0.9,1.5-1.1c0.6-0.3,1.3-0.4,2.1-0.4c0.8,0,1.5,0.1,2.1,0.4
		c0.6,0.3,1.1,0.7,1.5,1.1s0.7,1,0.9,1.7c0.2,0.6,0.3,1.3,0.3,2.1c0,0.8-0.1,1.5-0.3,2.2c-0.2,0.6-0.5,1.2-0.9,1.7
		c-0.4,0.5-0.9,0.8-1.5,1.1C-51.5-29.5-52.1-29.4-52.8-29.4z M-49.4-34.7c0-0.6-0.1-1.2-0.2-1.7c-0.1-0.5-0.3-1-0.6-1.4
		c-0.3-0.4-0.6-0.7-1-0.9s-1-0.3-1.6-0.3c-0.6,0-1.1,0.1-1.6,0.4s-0.8,0.6-1.1,1s-0.5,0.8-0.6,1.4s-0.2,1-0.2,1.6
		c0,0.6,0.1,1.2,0.2,1.7c0.2,0.5,0.4,1,0.7,1.4c0.3,0.4,0.6,0.7,1.1,0.9c0.4,0.2,0.9,0.3,1.5,0.3c0.6,0,1.1-0.1,1.6-0.4
		c0.4-0.2,0.8-0.6,1.1-1s0.5-0.9,0.6-1.4C-49.4-33.6-49.4-34.1-49.4-34.7z"/>
</g>
<g enable-background="new    ">
	<path fill="#FFFFFF" d="M-88.6-16.2c-0.2-0.8-0.6-1.3-1.1-1.8c-0.5-0.4-1.2-0.6-1.9-0.6c-0.6,0-1.1,0.1-1.5,0.4
		c-0.4,0.2-0.8,0.6-1,1c-0.3,0.4-0.5,0.9-0.6,1.4c-0.1,0.5-0.2,1-0.2,1.5c0,0.5,0.1,1.1,0.2,1.6c0.1,0.5,0.3,1,0.6,1.4s0.6,0.7,1,1
		c0.4,0.2,0.9,0.4,1.6,0.4c0.9,0,1.6-0.2,2.1-0.7c0.5-0.5,0.9-1.1,1-2h1.2c-0.1,0.6-0.3,1.1-0.5,1.5c-0.2,0.5-0.5,0.9-0.9,1.2
		C-89-9.7-89.5-9.4-90-9.2S-91-9-91.7-9c-0.8,0-1.5-0.1-2.1-0.4c-0.6-0.3-1.1-0.6-1.4-1.1c-0.4-0.5-0.7-1-0.8-1.7
		c-0.2-0.6-0.3-1.3-0.3-2.1c0-0.7,0.1-1.4,0.3-2c0.2-0.6,0.5-1.2,0.9-1.7s0.9-0.9,1.5-1.2c0.6-0.3,1.2-0.4,2-0.4
		c1.2,0,2.1,0.3,2.8,0.8c0.7,0.6,1.2,1.4,1.4,2.6H-88.6z"/>
	<path fill="#FFFFFF" d="M-80.9-9c-0.7,0-1.3-0.1-1.8-0.4c-0.6-0.2-1.1-0.6-1.5-1c-0.4-0.4-0.8-1-1-1.7c-0.2-0.7-0.4-1.4-0.4-2.3
		c0-0.7,0.1-1.4,0.3-2.1c0.2-0.6,0.5-1.2,0.9-1.7s0.9-0.9,1.5-1.1c0.6-0.3,1.3-0.4,2.1-0.4c0.8,0,1.5,0.1,2.1,0.4
		c0.6,0.3,1.1,0.7,1.5,1.1s0.7,1,0.9,1.7c0.2,0.6,0.3,1.3,0.3,2.1c0,0.8-0.1,1.5-0.3,2.2c-0.2,0.6-0.5,1.2-0.9,1.7
		C-78-10-78.5-9.6-79-9.4C-79.6-9.1-80.2-9-80.9-9z M-77.5-14.3c0-0.6-0.1-1.2-0.2-1.7c-0.1-0.5-0.3-1-0.6-1.4
		c-0.3-0.4-0.6-0.7-1-0.9s-1-0.3-1.6-0.3c-0.6,0-1.1,0.1-1.6,0.4s-0.8,0.6-1.1,1s-0.5,0.8-0.6,1.4s-0.2,1-0.2,1.6
		c0,0.6,0.1,1.2,0.2,1.7c0.2,0.5,0.4,1,0.7,1.4c0.3,0.4,0.6,0.7,1.1,0.9c0.4,0.2,0.9,0.3,1.5,0.3c0.6,0,1.1-0.1,1.6-0.4
		c0.4-0.2,0.8-0.6,1.1-1s0.5-0.9,0.6-1.4C-77.6-13.2-77.5-13.7-77.5-14.3z"/>
	<path fill="#FFFFFF" d="M-73.1-9.2h-1.2v-10.1h1.2v1.5h0c0.3-0.6,0.7-1,1.3-1.3c0.6-0.3,1.2-0.5,1.8-0.5c0.5,0,0.9,0,1.2,0.2
		c0.3,0.1,0.6,0.2,0.8,0.4c0.2,0.2,0.4,0.4,0.6,0.6c0.2,0.2,0.3,0.5,0.4,0.8c0.3-0.7,0.8-1.2,1.4-1.5c0.6-0.3,1.2-0.5,1.9-0.5
		c0.7,0,1.2,0.1,1.6,0.3c0.4,0.2,0.7,0.5,0.9,0.9c0.2,0.4,0.4,0.8,0.4,1.3c0.1,0.5,0.1,1,0.1,1.5v6.4h-1.2v-7c0-0.7-0.2-1.3-0.5-1.7
		c-0.3-0.4-0.9-0.6-1.7-0.6c-0.4,0-0.8,0.1-1.2,0.3c-0.4,0.2-0.7,0.5-1,0.9c-0.1,0.2-0.2,0.4-0.3,0.6c-0.1,0.2-0.2,0.5-0.2,0.7
		c-0.1,0.2-0.1,0.5-0.1,0.7c0,0.2,0,0.5,0,0.7v5.4H-68v-7c0-0.7-0.2-1.3-0.5-1.7c-0.3-0.4-0.9-0.6-1.7-0.6c-0.4,0-0.8,0.1-1.2,0.3
		c-0.4,0.2-0.7,0.5-1,0.9c-0.1,0.2-0.2,0.4-0.3,0.6c-0.1,0.2-0.2,0.5-0.2,0.7c-0.1,0.2-0.1,0.5-0.1,0.7c0,0.2,0,0.5,0,0.7V-9.2z"/>
	<path fill="#FFFFFF" d="M-57.8-21.5v-1.7h1.3v1.7H-57.8z M-57.7-9.2v-10.1h1.2v10.1H-57.7z"/>
	<path fill="#FFFFFF" d="M-52.4-9.2h-1.2v-10.1h1.2v1.4c0.5-0.5,1-0.9,1.5-1.2c0.5-0.3,1.1-0.5,1.8-0.5c0.6,0,1.2,0.1,1.7,0.3
		c0.5,0.2,1,0.6,1.3,1.1c0.2,0.4,0.4,0.7,0.4,1.1c0,0.4,0.1,0.8,0.1,1.2v6.6h-1.2v-6.6c0-0.9-0.2-1.6-0.6-2c-0.4-0.5-1.1-0.7-2-0.7
		c-0.4,0-0.7,0.1-1,0.2c-0.3,0.1-0.6,0.3-0.8,0.4s-0.4,0.4-0.6,0.6c-0.2,0.2-0.3,0.5-0.4,0.7c-0.1,0.3-0.2,0.6-0.2,0.9
		c0,0.3,0,0.6,0,1V-9.2z"/>
	<path fill="#FFFFFF" d="M-34.9-19.3h1.2v9.1c0,0.7-0.1,1.3-0.2,1.9c-0.1,0.6-0.4,1.2-0.7,1.6s-0.8,0.8-1.4,1.1s-1.4,0.4-2.4,0.4
		c-0.7,0-1.4-0.1-1.9-0.3c-0.5-0.2-1-0.4-1.3-0.7c-0.3-0.3-0.6-0.6-0.8-0.9c-0.2-0.3-0.3-0.7-0.3-1h1.2c0.1,0.4,0.2,0.7,0.4,0.9
		s0.4,0.4,0.7,0.6c0.3,0.1,0.6,0.2,0.9,0.3c0.3,0,0.7,0.1,1,0.1c0.8,0,1.4-0.1,1.9-0.4c0.5-0.3,0.8-0.6,1.1-1.1
		c0.2-0.4,0.4-0.9,0.5-1.5c0.1-0.6,0.1-1.1,0.1-1.7c-0.4,0.6-0.9,1.1-1.5,1.4C-37.1-9.1-37.8-9-38.5-9c-0.8,0-1.4-0.1-2-0.4
		c-0.6-0.3-1-0.7-1.4-1.2c-0.4-0.5-0.6-1.1-0.8-1.7c-0.2-0.6-0.3-1.3-0.3-2c0-0.7,0.1-1.4,0.2-2.1c0.2-0.6,0.4-1.2,0.8-1.7
		s0.8-0.8,1.4-1.1c0.6-0.3,1.3-0.4,2.1-0.4c0.3,0,0.7,0,1,0.1c0.3,0.1,0.7,0.2,1,0.4c0.3,0.2,0.6,0.4,0.9,0.6
		c0.3,0.3,0.5,0.6,0.7,0.9h0V-19.3z M-34.9-14.3c0-0.6-0.1-1.2-0.2-1.7c-0.2-0.5-0.4-1-0.7-1.4c-0.3-0.4-0.6-0.7-1.1-0.9
		s-0.9-0.3-1.5-0.3c-0.5,0-0.9,0.1-1.4,0.3s-0.8,0.4-1.1,0.8c-0.3,0.3-0.6,0.7-0.7,1.2s-0.3,1-0.3,1.7c0,0.6,0,1.2,0.2,1.8
		c0.1,0.6,0.3,1,0.6,1.5c0.3,0.4,0.6,0.7,1.1,1c0.4,0.2,1,0.4,1.6,0.4c0.5,0,1-0.1,1.4-0.3c0.4-0.2,0.8-0.5,1.1-0.9
		c0.3-0.4,0.5-0.8,0.7-1.3C-35-13.1-34.9-13.7-34.9-14.3z"/>
</g>
<g enable-background="new    ">
	<path fill="#FFFFFF" d="M-95.1,8c0.2,0.9,0.5,1.5,1,1.8c0.5,0.4,1.2,0.5,2,0.5c0.4,0,0.8,0,1.1-0.2c0.3-0.1,0.6-0.2,0.8-0.4
		s0.4-0.4,0.5-0.6c0.1-0.2,0.2-0.5,0.2-0.7c0-0.5-0.2-0.9-0.5-1.1s-0.7-0.4-1.2-0.6c-0.5-0.1-1-0.3-1.6-0.4s-1.1-0.2-1.6-0.4
		c-0.5-0.2-0.9-0.5-1.2-0.8c-0.3-0.4-0.5-0.9-0.5-1.5c0-0.8,0.3-1.5,0.9-2.1c0.6-0.5,1.5-0.8,2.6-0.8c1.1,0,2,0.2,2.7,0.7
		c0.7,0.5,1.1,1.3,1.2,2.4h-1.2c-0.1-0.8-0.4-1.3-0.9-1.6s-1.1-0.5-1.8-0.5s-1.3,0.2-1.7,0.5c-0.4,0.3-0.6,0.7-0.6,1.3
		c0,0.5,0.2,0.8,0.5,1c0.3,0.2,0.7,0.4,1.2,0.6c0.5,0.1,1,0.3,1.6,0.4c0.6,0.1,1.1,0.3,1.6,0.5c0.5,0.2,0.9,0.5,1.2,0.9
		c0.3,0.4,0.5,0.9,0.5,1.5c0,0.5-0.1,0.9-0.3,1.3c-0.2,0.4-0.5,0.7-0.9,0.9c-0.4,0.2-0.8,0.4-1.3,0.6s-1,0.2-1.6,0.2
		c-0.6,0-1.1-0.1-1.6-0.3c-0.5-0.2-0.9-0.4-1.2-0.7c-0.3-0.3-0.6-0.7-0.8-1.1c-0.2-0.4-0.3-0.9-0.3-1.3H-95.1z"/>
	<path fill="#FFFFFF" d="M-82,11.4c-0.7,0-1.3-0.1-1.8-0.4c-0.6-0.2-1.1-0.6-1.5-1c-0.4-0.4-0.8-1-1-1.7c-0.2-0.7-0.4-1.4-0.4-2.3
		c0-0.7,0.1-1.4,0.3-2.1c0.2-0.6,0.5-1.2,0.9-1.7s0.9-0.9,1.5-1.1c0.6-0.3,1.3-0.4,2.1-0.4c0.8,0,1.5,0.1,2.1,0.4
		c0.6,0.3,1.1,0.7,1.5,1.1s0.7,1,0.9,1.7c0.2,0.6,0.3,1.3,0.3,2.1c0,0.8-0.1,1.5-0.3,2.2c-0.2,0.6-0.5,1.2-0.9,1.7
		c-0.4,0.5-0.9,0.8-1.5,1.1C-80.7,11.3-81.3,11.4-82,11.4z M-78.6,6.1c0-0.6-0.1-1.2-0.2-1.7c-0.1-0.5-0.3-1-0.6-1.4
		c-0.3-0.4-0.6-0.7-1-0.9s-1-0.3-1.6-0.3c-0.6,0-1.1,0.1-1.6,0.4s-0.8,0.6-1.1,1s-0.5,0.8-0.6,1.4s-0.2,1-0.2,1.6
		c0,0.6,0.1,1.2,0.2,1.7c0.2,0.5,0.4,1,0.7,1.4c0.3,0.4,0.6,0.7,1.1,0.9c0.4,0.2,0.9,0.3,1.5,0.3c0.6,0,1.1-0.1,1.6-0.4
		c0.4-0.2,0.8-0.6,1.1-1s0.5-0.9,0.6-1.4C-78.7,7.2-78.6,6.7-78.6,6.1z"/>
	<path fill="#FFFFFF" d="M-71.2,11.4c-0.7,0-1.3-0.1-1.8-0.4c-0.6-0.2-1.1-0.6-1.5-1c-0.4-0.4-0.8-1-1-1.7c-0.2-0.7-0.4-1.4-0.4-2.3
		c0-0.7,0.1-1.4,0.3-2.1c0.2-0.6,0.5-1.2,0.9-1.7s0.9-0.9,1.5-1.1c0.6-0.3,1.3-0.4,2.1-0.4c0.8,0,1.5,0.1,2.1,0.4
		c0.6,0.3,1.1,0.7,1.5,1.1s0.7,1,0.9,1.7c0.2,0.6,0.3,1.3,0.3,2.1c0,0.8-0.1,1.5-0.3,2.2c-0.2,0.6-0.5,1.2-0.9,1.7
		c-0.4,0.5-0.9,0.8-1.5,1.1C-69.9,11.3-70.5,11.4-71.2,11.4z M-67.8,6.1c0-0.6-0.1-1.2-0.2-1.7c-0.1-0.5-0.3-1-0.6-1.4
		c-0.3-0.4-0.6-0.7-1-0.9s-1-0.3-1.6-0.3c-0.6,0-1.1,0.1-1.6,0.4s-0.8,0.6-1.1,1s-0.5,0.8-0.6,1.4s-0.2,1-0.2,1.6
		c0,0.6,0.1,1.2,0.2,1.7c0.2,0.5,0.4,1,0.7,1.4c0.3,0.4,0.6,0.7,1.1,0.9c0.4,0.2,0.9,0.3,1.5,0.3c0.6,0,1.1-0.1,1.6-0.4
		c0.4-0.2,0.8-0.6,1.1-1s0.5-0.9,0.6-1.4C-67.8,7.2-67.8,6.7-67.8,6.1z"/>
	<path fill="#FFFFFF" d="M-63.2,11.2h-1.2V1.1h1.2v1.4c0.5-0.5,1-0.9,1.5-1.2c0.5-0.3,1.1-0.5,1.8-0.5c0.6,0,1.2,0.1,1.7,0.3
		c0.5,0.2,1,0.6,1.3,1.1c0.2,0.4,0.4,0.7,0.4,1.1c0,0.4,0.1,0.8,0.1,1.2v6.6h-1.2V4.6c0-0.9-0.2-1.6-0.6-2c-0.4-0.5-1.1-0.7-2-0.7
		c-0.4,0-0.7,0.1-1,0.2c-0.3,0.1-0.6,0.3-0.8,0.4s-0.4,0.4-0.6,0.6c-0.2,0.2-0.3,0.5-0.4,0.7c-0.1,0.3-0.2,0.6-0.2,0.9
		c0,0.3,0,0.6,0,1V11.2z"/>
</g>
<g>
	<path fill="#D1D3D4" d="M111-12.6c-0.3,0-0.6,0.2-0.8,0.5L97.2,3.9c-0.3,0.4-0.1,1.2,0.3,1.2h3.3L111-6.5l9,10.1V2.7l-8.5-9.6
		L111-7.4l-0.4,0.5L100.5,4.5h-2.8c0-0.1,0-0.2,0-0.3l13.1-15.9l0,0l0,0c0.1-0.2,0.2-0.2,0.3-0.2c0.1,0,0.2,0.1,0.3,0.2l0,0l0,0
		L120-1.2v-0.9l-8.2-9.9C111.6-12.4,111.3-12.6,111-12.6z"/>
	<polygon fill="#D1D3D4" points="107.3,64 120,64 120,63.4 107.9,63.4 107.9,51.3 120,51.3 120,50.7 107.3,50.7 	"/>
	<path fill="#D1D3D4" d="M62.4-39.9H45.6v4.2h16.9V-39.9z M61.9-36.3H46.2v-3h15.7V-36.3z"/>
	<polygon fill="#D1D3D4" points="120,80.1 108,80.1 108,68.2 120,68.2 120,67.6 107.4,67.6 107.4,80.7 120,80.7 	"/>
	<path fill="#D1D3D4" d="M18.6,80.8h19.9V67.6H18.6V80.8z M19.2,68.2h18.7v12H19.2V68.2z"/>
	<path fill="#D1D3D4" d="M38.5,50.7H18.6V64h19.9V50.7z M37.9,63.4H19.2V51.3h18.7V63.4z"/>
	<path fill="#D1D3D4" d="M120,112.3H-18c-1,0-1.8-0.9-1.8-2v-1.4c0-1.1,0.8-2,1.8-2h13.7V51.8h-16.4c0,0-0.1,0-0.1-0.1
		c0,0,0-0.2,0.1-0.2l0.1-0.1l0.1-0.1l1.9-2.2H120v-0.6H-18.1L16.5,7.5c0.3-0.2,0.6-0.4,0.9-0.6c1.2-0.8,2.2-1.5,4.4-1.5
		c2.8,0,5.3,2,5.3,2l0.2,0.1H118l0.2-0.1c0,0,0.8-0.6,1.9-1.1V5.7c-1.3,0.6-2.2,1.3-2.2,1.3H27.5c0,0-1-0.8-2.4-1.4l0.5,0.1
		L36.3-6.5L46.6,5.1h3.3c0.4,0,0.6-0.8,0.3-1.2L37.1-12.1c-0.2-0.3-0.5-0.5-0.8-0.5s-0.6,0.2-0.8,0.5L22.4,3.9
		c-0.3,0.4-0.3,0.7,0.4,1l0,0c-0.4-0.1-0.7-0.1-1.1-0.1c-3,0-4,1.2-5.7,2.2l-33.6,39.8l32-59.4H120v-0.6H60.1v-20.2
		c0-0.2-0.2-0.4-0.4-0.4H48.3c-0.2,0-0.4,0.2-0.4,0.4v20.2H14.1L-19.4,49h0l-1.6,1.8c-0.7,0.4-0.5,1.5,0.3,1.5h15.8v53.9H-18
		c-1.3,0-2.4,1.2-2.4,2.6v1.4c0,1.4,1.1,2.6,2.4,2.6h138V112.3z M22.9,4.2L36-11.7l0,0l0,0c0.1-0.2,0.2-0.2,0.3-0.2
		c0.1,0,0.2,0.1,0.3,0.2l0,0l0,0L49.7,4.2c0,0.1,0,0.2,0,0.3h-2.8L36.8-6.9l-0.5-0.5l-0.4,0.5L25.4,5l-2.3-0.7
		C23,4.3,22.9,4.3,22.9,4.2C22.9,4.2,22.9,4.2,22.9,4.2z M48.6-33.2h10.9v19.7H48.6V-33.2z"/>
	<path fill="#D1D3D4" d="M16.2,80.7v-30H6.7v30H16.2z M7.3,51.4h8.4v28.8H7.3V51.4z"/>
	<path fill="#D1D3D4" d="M88.8,87.9h-6V56.5c-2.8-2.6-6.6-4-10.5-4c-3.8,0-7.6,1.3-10.5,4v31.4h-7.1l-7.3,23.3h50.2L88.8,87.9z
		 M62.5,56.8c2.6-2.3,6.1-3.6,9.9-3.6c3.8,0,7.2,1.3,9.9,3.6v31.1H62.5V56.8z M55.2,88.5h33.2l4.1,10.9H51.8L55.2,88.5z M51.6,100
		h41.2l1.4,3.6H50.5L51.6,100z M50.3,104.2h43.9v-0.4l2.6,6.8H48.2L50.3,104.2z"/>
	<path fill="#D1D3D4" d="M105,50.8h-9v30h9V50.8z M104.4,80.2h-7.8V51.4h7.8V80.2z"/>
	<path fill="#D1D3D4" d="M40.8,50.8v30h9v-30H40.8z M49.3,80.2h-7.9V51.4h7.9V80.2z"/>
</g>
</svg>
