<svg width="100" height="156" viewBox="0 0 100 156" xmlns="http://www.w3.org/2000/svg" xmlns:xlink="http://www.w3.org/1999/xlink"><svg width="24" height="24" viewBox="0 0 24 24"><path fill="#3B5998" d="M17.8 4.6h-2.1c-1.6 0-2 .8-2 1.9V9h3.9l-.5 4h-3.4v10.2H9.6V13H6.2V9h3.4V6.1c0-3.4 2.1-5.2 5.1-5.2 1.4 0 2.7.1 3.1.2v3.5z"/></svg><svg width="24" height="24" viewBox="0 0 24 24" y="24"><path fill="#DD4B39" d="M15 17.7c0 .8-.2 1.6-.6 2.3-1.4 2.3-4.3 3.2-6.8 3.2-2 0-4.5-.5-5.6-2.4-.3-.5-.5-1.1-.5-1.8 0-1.5.9-2.8 2.2-3.5 1.6-1 3.6-1.2 5.4-1.3-.5-.6-.8-1.2-.8-2 0-.4.1-.8.3-1.1-.5-.1-.8-.1-1.1-.1-2.6 0-4.7-1.9-4.7-4.6 0-1.5.7-2.9 1.8-3.9C6.1 1.3 8.1.9 10 .9h5.6L13.7 2H12c1.2 1.1 2 2.2 2 3.9 0 3.5-3.2 3.9-3.2 5.6 0 1.8 4.2 2.4 4.2 6.2zm-1.9 1.1c0-1.8-1.8-2.9-3.1-3.8h-.6c-2.2 0-5.4.7-5.4 3.5 0 2.6 2.8 3.6 5 3.6 1.9-.2 4.1-1 4.1-3.3zm-2.3-9.4c.5-.6.7-1.3.7-2.1 0-2-1.2-5.3-3.6-5.3-.8 0-1.5.4-2 1-.4.5-.6 1.3-.6 2.1 0 2 1.1 5.2 3.6 5.2.6-.1 1.4-.4 1.9-.9zm11.8.8v1.4h-2.9v2.9h-1.4v-2.9h-2.8v-1.4h2.8V7.3h1.4v2.9h2.9z"/></svg><svg width="24" height="24" viewBox="0 0 24 24" y="48"><path fill="#CC2127" d="M12 22.3c-1 0-2-.1-2.9-.4.4-.6.8-1.4 1-2.2 0 0 .1-.5.7-2.8.3.7 1.4 1.3 2.5 1.3 3.3 0 5.6-3 5.6-7.1 0-3-2.6-5.9-6.5-5.9-4.9 0-7.3 3.5-7.3 6.4 0 1.8.7 3.3 2.1 3.9.2.1.4 0 .5-.3.1-.2.2-.6.2-.8.1-.3 0-.3-.1-.6-.4-.5-.7-1.1-.7-2-.1-2.5 1.9-4.9 5-4.9 2.8 0 4.3 1.7 4.3 4 0 3-1.3 5.5-3.3 5.5-1.1 0-1.9-.9-1.6-2 .3-1.3.9-2.7.9-3.6 0-.8-.5-1.6-1.4-1.6-1.1 0-2 1.1-2 2.7 0 0 0 1 .3 1.6C8.2 18.3 8 19.1 8 19.1c-.2.8-.2 1.6-.2 2.4-3.6-1.6-6.2-5.2-6.2-9.4C1.7 6.3 6.3 1.7 12 1.7S22.3 6.3 22.3 12 17.7 22.3 12 22.3z"/></svg><svg width="24" height="24" viewBox="0 0 24 24" y="72"><path fill="#55ACEE" d="M20.4 7.7v.6c0 5.7-4.4 12.3-12.3 12.3-2.5 0-4.7-.7-6.6-1.9.3 0 .7.1 1 .1 2 0 3.9-.7 5.4-1.8-1.9 0-3.5-1.3-4-3 .3 0 .5.1.8.1.4 0 .8-.1 1.1-.1-2-.4-3.5-2.1-3.5-4.2v-.1c.6.3 1.2.5 2 .5-1.2-1-2-2.3-2-3.8 0-.8.2-1.5.6-2.2C5 6.8 8.3 8.6 11.8 8.7c-.1-.3-.1-.7-.1-1 0-2.4 1.9-4.3 4.3-4.3 1.2 0 2.4.5 3.2 1.4 1-.2 1.9-.5 2.7-1-.3 1-1 1.8-1.9 2.4.9-.1 1.7-.3 2.5-.7-.5.8-1.3 1.6-2.1 2.2z"/></svg><svg width="100" height="30" viewBox="0 0 100 30" y="96"><path fill="#6A7272" d="M34.7 8.5c0-.3.1-.3.6-.3v5.1c.8-.6 1.8-.9 2.6-.9 1.9 0 2.4.6 2.4 4.1v5.6c0 .2 0 .2-.6.2v-5.9c0-3-.3-3.4-1.9-3.4-.8 0-1.8.3-2.5 1v8.1c0 .2 0 .2-.6.2V8.5zM45 12.4c1.9 0 3 1.2 3 5.1 0 3.4-1.2 5.1-3.1 5.1-1.9 0-3.1-.7-3.1-5.1 0-3.6 1.2-5.1 3.2-5.1zm-.1 9.6c1.5 0 2.5-1.5 2.5-4.6 0-3.5-.9-4.5-2.4-4.5s-2.5 1.2-2.5 4.7.8 4.4 2.4 4.4zm10.5-.1c-.9.5-2.1.6-3 .6-2.4 0-2.8-1-2.8-3.7v-6c0-.2 0-.2.6-.2V19c0 2.3.3 3 2.1 3 .7 0 1.7-.1 2.4-.5v-8.6c0-.2 0-.2.6-.2v9.2zm7.2-8.7c0 .1-.1.3-.2.5-.7-.5-1.4-.7-2.3-.7-1.4 0-2.5.5-2.5 1.4 0 .5.3.9.8 1.4l2.7 1.9c.9.7 1.4 1.4 1.4 2.3 0 1.8-1.1 2.7-3.1 2.7-1.6 0-2.5-.4-2.5-.7 0-.2.1-.3.2-.5.6.4 1.2.5 2.2.5 1.5 0 2.5-.5 2.5-2 0-.7-.4-1.3-1.3-1.9l-2.4-1.7c-.9-.7-1.3-1.2-1.3-1.9 0-1.4 1.4-2 3.1-2 1.7-.1 2.7.5 2.7.7zm7.1 2.2c0 .8 0 1.6-.1 2.2-2 .4-4.6.4-5.1.4v.1c0 3.5 1.1 3.9 2.6 3.9.9 0 1.9-.2 2.4-.7.1.2.1.5.1.6 0 .2-1.2.7-2.6.7-1.9 0-3.2-.6-3.2-4.6 0-5.3 1.9-5.7 3.5-5.7 1.7.1 2.4 1.3 2.4 3.1zm-5.2 2c.7 0 3 0 4.5-.3.1-.5.1-1 .1-1.5 0-1.7-.4-2.7-1.8-2.7-1.1.1-2.7.3-2.8 4.5zm13.3-5.1c1.9 0 3 1.2 3 5.1 0 3.3-1.1 5-3 5s-3.1-.7-3.1-5c-.1-3.6 1.1-5.1 3.1-5.1zm-.2 9.5c1.5 0 2.5-1.5 2.5-4.5 0-3.5-.9-4.4-2.3-4.4-1.5 0-2.5 1.2-2.5 4.6-.1 3.4.8 4.3 2.3 4.3zm10.9-9.4s.1.1.1.3c0 .2-.1.3-.3.3-.4 0-.9 0-1.3-.1.8.4 1.4 1.3 1.4 2.6 0 1.9-.9 3.7-3.1 3.7-.5 0-.9-.1-1.3-.2-.5.4-1.1 1-1.1 1.4 0 .3 1.4.6 3.2.8 1.3.2 2.5.5 2.5 2 0 1.3-1.2 2.6-3.7 2.6s-3-1.1-3-2.2c0-.9.8-1.8 1.6-2.3-.8-.2-1.3-.5-1.3-.8 0-.6.7-1.3 1.2-1.8-1-.6-1.2-1.7-1.2-3 0-2.3 1.4-3.5 3.1-3.5.2 0 .5 0 .8.1h2.4zm-6 11.2c0 .8.4 1.6 2.4 1.6s3.1-1 3.1-2c0-1.2-1-1.4-2.1-1.5-.6-.1-1.2-.2-1.7-.2-.8.5-1.7 1.3-1.7 2.1zm2.8-10.7c-1.3 0-2.4 1-2.4 3 0 1.4.3 2.8 2.4 2.8 1.7 0 2.4-1.6 2.4-3.2-.1-1.7-1-2.6-2.4-2.6zm5.3-4.3c.3 0 .4.2.4.6 0 .4-.1.6-.5.6-.3 0-.4-.2-.4-.6 0-.4.2-.6.5-.6zm.2 13.3c0 .2 0 .2-.7.2v-9.2c0-.3.2-.3.7-.3v9.3zm6.8-8.5c-.4-.3-.7-.5-1.4-.5-1.3 0-2.9.6-2.9 4.7 0 3.8 1 4.2 2.5 4.2.7 0 1.3-.3 1.8-.7.1.1.1.3.1.4 0 .2-.9.9-2 .9-1.8 0-3.1-.4-3.1-4.9 0-4.7 1.9-5.2 3.5-5.2.8 0 1.6.4 1.6.6 0 .2 0 .4-.1.5zm-25 6.3c0 .8.1 1.3.3 1.6.2.3.3.3.6.4.3 0 .3 0 .3.3 0 .2-.1.3-.3.3-.4 0-.8-.2-1.1-.6-.3-.4-.4-1-.4-1.9V8.5c0-.3.2-.3.6-.3v11.5zM34.7 8.5c0-.3.1-.3.6-.3v5.1c.8-.6 1.8-.9 2.6-.9 1.9 0 2.4.6 2.4 4.1v5.6c0 .2 0 .2-.6.2v-5.9c0-3-.3-3.4-1.9-3.4-.8 0-1.8.3-2.5 1v8.1c0 .2 0 .2-.6.2V8.5zM45 12.4c1.9 0 3 1.2 3 5.1 0 3.4-1.2 5.1-3.1 5.1-1.9 0-3.1-.7-3.1-5.1 0-3.6 1.2-5.1 3.2-5.1zm-.1 9.6c1.5 0 2.5-1.5 2.5-4.6 0-3.5-.9-4.5-2.4-4.5s-2.5 1.2-2.5 4.7.8 4.4 2.4 4.4zm10.5-.1c-.9.5-2.1.6-3 .6-2.4 0-2.8-1-2.8-3.7v-6c0-.2 0-.2.6-.2V19c0 2.3.3 3 2.1 3 .7 0 1.7-.1 2.4-.5v-8.6c0-.2 0-.2.6-.2v9.2zm7.2-8.7c0 .1-.1.3-.2.5-.7-.5-1.4-.7-2.3-.7-1.4 0-2.5.5-2.5 1.4 0 .5.3.9.8 1.4l2.7 1.9c.9.7 1.4 1.4 1.4 2.3 0 1.8-1.1 2.7-3.1 2.7-1.6 0-2.5-.4-2.5-.7 0-.2.1-.3.2-.5.6.4 1.2.5 2.2.5 1.5 0 2.5-.5 2.5-2 0-.7-.4-1.3-1.3-1.9l-2.4-1.7c-.9-.7-1.3-1.2-1.3-1.9 0-1.4 1.4-2 3.1-2 1.7-.1 2.7.5 2.7.7zm7.1 2.2c0 .8 0 1.6-.1 2.2-2 .4-4.6.4-5.1.4v.1c0 3.5 1.1 3.9 2.6 3.9.9 0 1.9-.2 2.4-.7.1.2.1.5.1.6 0 .2-1.2.7-2.6.7-1.9 0-3.2-.6-3.2-4.6 0-5.3 1.9-5.7 3.5-5.7 1.7.1 2.4 1.3 2.4 3.1zm-5.2 2c.7 0 3 0 4.5-.3.1-.5.1-1 .1-1.5 0-1.7-.4-2.7-1.8-2.7-1.1.1-2.7.3-2.8 4.5zm13.3-5.1c1.9 0 3 1.2 3 5.1 0 3.3-1.1 5-3 5s-3.1-.7-3.1-5c-.1-3.6 1.1-5.1 3.1-5.1zm-.2 9.5c1.5 0 2.5-1.5 2.5-4.5 0-3.5-.9-4.4-2.3-4.4-1.5 0-2.5 1.2-2.5 4.6-.1 3.4.8 4.3 2.3 4.3zm10.9-9.4s.1.1.1.3c0 .2-.1.3-.3.3-.4 0-.9 0-1.3-.1.8.4 1.4 1.3 1.4 2.6 0 1.9-.9 3.7-3.1 3.7-.5 0-.9-.1-1.3-.2-.5.4-1.1 1-1.1 1.4 0 .3 1.4.6 3.2.8 1.3.2 2.5.5 2.5 2 0 1.3-1.2 2.6-3.7 2.6s-3-1.1-3-2.2c0-.9.8-1.8 1.6-2.3-.8-.2-1.3-.5-1.3-.8 0-.6.7-1.3 1.2-1.8-1-.6-1.2-1.7-1.2-3 0-2.3 1.4-3.5 3.1-3.5.2 0 .5 0 .8.1h2.4zm-6 11.2c0 .8.4 1.6 2.4 1.6s3.1-1 3.1-2c0-1.2-1-1.4-2.1-1.5-.6-.1-1.2-.2-1.7-.2-.8.5-1.7 1.3-1.7 2.1zm2.8-10.7c-1.3 0-2.4 1-2.4 3 0 1.4.3 2.8 2.4 2.8 1.7 0 2.4-1.6 2.4-3.2-.1-1.7-1-2.6-2.4-2.6zm5.3-4.3c.3 0 .4.2.4.6 0 .4-.1.6-.5.6-.3 0-.4-.2-.4-.6 0-.4.2-.6.5-.6zm.2 13.3c0 .2 0 .2-.7.2v-9.2c0-.3.2-.3.7-.3v9.3zm6.8-8.5c-.4-.3-.7-.5-1.4-.5-1.3 0-2.9.6-2.9 4.7 0 3.8 1 4.2 2.5 4.2.7 0 1.3-.3 1.8-.7.1.1.1.3.1.4 0 .2-.9.9-2 .9-1.8 0-3.1-.4-3.1-4.9 0-4.7 1.9-5.2 3.5-5.2.8 0 1.6.4 1.6.6 0 .2 0 .4-.1.5zm-25 6.3c0 .8.1 1.3.3 1.6.2.3.3.3.6.4.3 0 .3 0 .3.3 0 .2-.1.3-.3.3-.4 0-.8-.2-1.1-.6-.3-.4-.4-1-.4-1.9V8.5c0-.3.2-.3.6-.3v11.5z"/><path d="M4.6 11.8l-2.9 2.5 2.9 1.9zM15.8 17l1.5.9 9.2-8.3-10.7-7.4-11.2 9.6 9.2 5.9z" fill="#80D0E1"/><path fill="#F69220" d="M4.6 16.2v5.1l4.9-1.9z"/><path fill="#7C781C" d="M4.6 11.8v4.4l4.9 3.2 4.3-1.7z"/><path fill="#64680F" d="M13.8 17.7l-4.3 1.7 3.5 2.3 2.8-2.5V19z"/><path fill="#C57F11" d="M13 21.7l-3.5-2.3-4.9 1.9L15.8 28v-8.8z"/><path fill="#67B575" d="M15.8 19v.2l1.5-1.3-1.5-.9-2 .7z"/><path fill="#CBDC83" d="M17.3 17.9l-1.5 1.3V28l10.7-4.7z"/></svg><svg width="100" height="30" viewBox="0 0 100 30" y="126"><path fill="#282526" d="M14.9 1.1h11.9c.1 0 .4.2.4.3 0 5 .2 9.9 0 14.9-.2 4.1-1.9 7.5-5.7 9.6-1.9 1-4 1.9-6 2.8-.3.1-.6.2-.9.1-2.9-.9-5.7-2.2-8.1-4.1-2.3-1.8-3.4-4.4-3.8-7.3-.2-1.1-.2-2.3-.2-3.4V1.7c0-.4.1-.5.5-.5 4 0 7.9-.1 11.9-.1z"/><path fill="#076FB8" d="M90.8 1.3c.8.1 1.7.1 2.5.2 1.2.2 1.8.9 1.9 1.9.1.9-.4 1.9-1.3 2.4-.4.2-.4.3-.2.7.8 1 1.5 2.1 2.3 3.1.2.3.7.4 1 .6.1 0 .1.1.2.1-.1.1-.2.1-.3.2-1 .1-1.9-.1-2.6-1-.6-.8-1.2-1.7-1.8-2.6-.2-.2-.4-.5-.7-.5-.8-.2-1-.1-1 .7V9c0 .6.2.9.8.9.1 0 .2.2.3.2-.1 0-.2.1-.3.1h-2.8c-.1 0-.2-.1-.3-.2.1-.1.2-.2.3-.2.7 0 .9-.4.9-1.1v-6c0-.5-.1-.9-.8-.9-.1 0-.2-.1-.3-.2.1-.1.2-.2.3-.2h1.7c.2 0 .2 0 .2-.1zm-58.7 9h-1.4c-.1 0-.2-.1-.3-.2l.2-.2c.8 0 .9-.5.9-1.1v-6c0-.6-.1-1-.8-1-.1 0-.2-.1-.3-.2.1-.1.2-.2.3-.2 1.4 0 2.8-.1 4.2 0 1.2.1 1.8.8 2 1.8.2 1-.3 1.9-1.3 2.4-.4.2-.4.4-.2.7.7 1 1.4 2 2.2 3 .3.3.7.5 1.1.7.1 0 .1.1.2.1-.1 0-.2.1-.2.1-.9.1-1.8 0-2.4-.7-.7-.9-1.3-1.9-2-2.8-.2-.2-.4-.5-.7-.5-.8-.2-1-.1-1 .8v1.8c0 .6.2 1 .8 1 .1 0 .2.1.3.2-.1.1-.2.2-.3.2-.3.1-.8.1-1.3.1zm50.3-9.1c2.9.1 4.7 2 4.6 4.9-.1 2.5-2.2 4.5-4.9 4.4-2.6-.1-4.6-2.1-4.5-4.7 0-2.6 2.1-4.7 4.8-4.6z"/><path fill="#0E73BA" d="M43.9 10.3h-3c-.1 0-.2-.1-.3-.1.1-.1.2-.2.3-.2.7 0 1-.4 1-1.1v-6c0-.6-.1-1-.8-1.1-.1 0-.2-.1-.2-.2.1-.1.2-.2.3-.2h5.7c0 .6 0 1.2.1 1.8h-.4c-.3-1.3-1.3-1.3-2.3-1.3-1.3 0-1.3 0-1.3 1.3V5c0 .2.3.4.4.4.4.1.8 0 1.1 0 .6 0 1.1-.1 1.1-.9 0-.1.2-.2.3-.2 0 .1.1.2.1.3v2.2c.1.1 0 .2 0 .3-.1-.1-.2-.1-.2-.2-.1-1-.7-.9-1.4-.9C43 6 43 5.9 43 7.2v1.7c0 .5.3.8.8.9h1.9c.9 0 1.2-.6 1.6-1.2.1-.1.2-.2.4-.3 0 .1.1.3 0 .4-.4 1.5-.4 1.5-2 1.5-.5.1-1.2.1-1.8.1z"/><path fill="#0970B9" d="M56.5 10.3h-1.4c-.1 0-.2-.1-.3-.2.1-.1.2-.2.3-.2.7 0 .7-.3.5-.8-.2-.6-.4-1.3-.6-1.9-.1-.2-.3-.4-.5-.4h-2.1c-.2 0-.4.2-.5.3-.3.7-.5 1.4-.7 2.1-.1.4 0 .6.4.6.1 0 .3.1.4.2-.1.1-.3.1-.4.2h-2.1c-.1 0-.2-.1-.3-.2.1-.1.2-.2.3-.2.5 0 .8-.2 1-.7.9-2.5 1.8-4.9 2.8-7.3.1-.3.5-.4.7-.6l.3.6c.8 2.4 1.6 4.7 2.4 7.1.2.6.5 1 1.2 1 .1 0 .2.1.2.2-.1.1-.2.1-.3.1-.3.1-.8.1-1.3.1zm16.2-4.6V9c0 .6.2 1 .9 1 .1 0 .2.1.4.2-.1.1-.3.2-.4.2h-3c-.1 0-.2-.1-.4-.2.1-.1.2-.2.4-.2.8 0 1-.4 1-1.1V2.3c0-.1-.2-.3-.4-.4h-1.3c-.7 0-1.2.3-1.5 1-.2.1-.3.2-.4.2 0-.1-.1-.3 0-.4.1-.5.2-1 .4-1.5 0-.1.1-.2.2-.3.1 0 .1.1.2.1.2.1.5.3.7.3h6.1c.2 0 .3 0 .5-.1.1-.1.3-.2.4-.3v.6c0 .4-.1.8-.1 1.3 0 .1-.1.2-.2.3-.2 0-.3 0-.3-.1-.1-.8-.6-1-1.2-1-1.9-.2-1.9-.2-1.9 1.7-.1.6-.1 1.3-.1 2z"/><path fill="#0E73BA" d="M63.5 10.3h-2.8c-.1 0-.3-.1-.4-.1.1-.1.2-.2.3-.2.6 0 .9-.3.9-1V2.7c0-.6-.2-.9-.8-.9-.1 0-.3-.1-.4-.2.1-.1.3-.2.4-.2h2.8c.1 0 .2.1.4.2-.1.1-.2.2-.3.2-.6 0-.9.3-.9.9v6.1c0 .6.3 1 .9 1h1.7c.8 0 1.1-.6 1.4-1.2l.3-.3c0 .1.1.3 0 .4-.4 1.6-.4 1.6-2 1.5-.4.1-1 .1-1.5.1z"/><path fill="#282526" d="M68.6 13.2c.4 0 .9 0 1.4.1.7.1 1.3.5 1.4 1.3.1.7-.2 1.4-.9 1.7-.4.2-.3.4-.1.6.5.7 1 1.4 1.6 2.1.1.1.3.2.4.4.1.1.3.2.5.2-.2 0-.5.2-.6.1-.5-.2-1.1-.4-1.5-.8-.5-.5-.8-1.2-1.2-1.7-.2-.2-.4-.3-.7-.4-.4-.1-.6.1-.5.5v1.4c0 .4.1.8.6.8.1 0 .1.1.2.2-.1 0-.2.1-.2.1h-2c-.1 0-.2-.1-.3-.1l.2-.2c.5 0 .6-.3.6-.7v-4.6c0-.2-.3-.4-.5-.5-.1-.1-.2-.1-.3-.2.1-.1.2-.2.3-.2.5 0 .9 0 1.6-.1z"/><path fill="#2E2A2B" d="M40.3 16.7c0 .7 0 1.4.1 2.1 0 .2.4.4.6.6.1.1.2.1.3.2-.1 0-.2.1-.3.1h-1.7c-.1 0-.2-.1-.2-.1.1 0 .1-.1.2-.1.5 0 .6-.4.6-.8v-4.3c0-.5-.3-.7-.7-.8-.1 0-.2-.1-.3-.2.1 0 .2-.1.3-.1h1c.1 0 .3.1.4.2l3.9 4.5c0 .1.1.1.2.1 0-.1.1-.1.1-.2 0-1.2 0-2.4-.1-3.6 0-.4-.2-.7-.7-.7-.1 0-.2-.1-.3-.2.1 0 .2-.1.3-.1h1.7c.1 0 .2.1.3.1-.1.1-.1.2-.2.2-.6 0-.6.5-.6.9v5c0 .1-.1.3-.1.4l-.3-.3c-1.4-1.6-2.7-3.2-4.1-4.7-.1-.1-.2-.1-.2-.2 0 .1-.1.2-.1.3 0 .5 0 1.1-.1 1.7.1 0 .1 0 0 0zm21.9 3H60c-.1 0-.2-.1-.3-.1.1-.1.2-.1.3-.1.6 0 .7-.3.7-.8v-4.4c0-.4-.1-.7-.6-.7-.1 0-.1-.1-.2-.1.1 0 .2-.1.2-.1H64c.1 0 .2.2.3.4v.9c-.1-.2-.2-.4-.4-.5-.3-.2-.7-.4-1-.4-1.4-.1-1.4-.1-1.4 1.4 0 1.2 0 1.2 1.2 1.2.4 0 .7-.1.8-.6 0-.1.1-.1.2-.2 0 .1.1.2.1.3v1.5c0 .1-.1.2-.1.3-.1 0-.2-.1-.2-.1-.1-.9-.7-.6-1.2-.7-.6-.1-.8.1-.7.7.1.5 0 1 .1 1.5 0 .2.1.3.2.4.7.5 2.3.1 2.8-.6.1-.1.2-.2.4-.3v.5c-.1.7-.4 1.1-1.2.9-.7-.4-1.2-.3-1.7-.3zm-26-4.1c0-.4-.1-.8-.1-1.3 0-.4-.1-.8-.7-.8-.1 0-.1-.1-.2-.1.1 0 .1-.1.2-.1h1.8c.1 0 .1.1.2.1-.1.1-.1.2-.2.2-.6 0-.6.3-.7.8 0 .9 0 1.9-.1 2.8 0 2.2-1.8 3.3-3.8 2.5-1-.4-1.3-1.2-1.3-2.2v-3c0-.5 0-1-.7-.9-.1 0-.1-.1-.2-.1.1 0 .1-.1.2-.1h2.1c.1 0 .1.1.2.1-.1.1-.1.2-.2.2-.6 0-.6.4-.6.8v3.1c.1 1.5 1.2 2.3 2.5 1.9.8-.3 1.2-.9 1.3-1.7.3-.9.3-1.5.3-2.2zm51 .8v2.3c0 .4.1.7.6.7.1 0 .2.1.3.2-.1 0-.2.1-.3.1h-2.1c-.1 0-.2-.1-.3-.1.1-.1.2-.2.3-.2.6 0 .7-.3.7-.8v-4.7c0-.1-.1-.3-.2-.3-.8-.2-1.7.1-2.2.7-.1.1-.2.1-.2.1 0-.1-.1-.2 0-.3.2-.5-.1-1.3 1.1-1 1.4.3 2.8.1 4.3.1h.2c1.1-.6.3.4.5.6v.1c0 .2-.1.4-.1.7-.1-.2-.2-.4-.3-.5-.3-.2-.6-.4-.9-.4-1.3-.1-1.3-.1-1.3 1.2-.1.4-.1 1-.1 1.5z"/><path fill="#2C292A" d="M53.1 13.3h.9c.1 0 .2.1.2.1-.1.1-.1.2-.2.2-.4 0-.4.2-.3.6.5 1.3 1 2.6 1.6 3.9 0 .1.1.2.2.2 0-.1.1-.1.1-.2.5-1.3 1.1-2.6 1.6-3.9.1-.3.1-.5-.3-.6-.1 0-.2-.1-.3-.2.1 0 .2-.1.3-.1h1.6c.1 0 .2.1.2.1l-.2.2c-.3.2-.7.4-.8.7-.8 1.7-1.5 3.5-2.3 5.2-.1.1-.2.2-.2.4-.1-.1-.2-.2-.2-.4-.7-1.8-1.4-3.6-2.2-5.3-.1-.3-.4-.4-.7-.6l-.2-.2c.1 0 .2-.1.3-.1h.9zm41.1 6.4h-1.1c-.1 0-.1-.1-.2-.1.1-.1.1-.2.2-.2.6 0 .7-.4.7-.9 0-.9 0-1.6-.5-2.4-.4-.6-.7-1.4-1.1-2-.2-.3-.5-.4-.7-.6l-.2-.2c.1 0 .2-.1.3-.1h1.7c.1 0 .2.1.3.1-.1.1-.2.1-.2.2-.1.1-.2.3-.2.4.3.8.7 1.5 1.1 2.3h.3c.4-.7.8-1.5 1.2-2.2.2-.3.2-.5-.2-.6-.1 0-.1-.1-.2-.2.1 0 .2-.1.2-.1h1.5c.1 0 .1.1.2.1l-.2.2c-.3.2-.7.4-.9.8-.5.7-1 1.4-1.3 2.2-.2.8-.2 1.7-.2 2.5 0 .1.3.2.4.3.1.1.3.1.5.2-.2 0-.3.1-.5.1-.4.2-.6.2-.9.2z"/><path fill="#2E2A2B" d="M76.1 13.2h.3c.8.1 1 .3 1 1.1 0 .1-.1.2-.1.3-.1-.1-.1-.2-.2-.3-.3-.3-.6-.7-1-.8-.5-.2-1 0-1.3.5-.3.5-.1 1 .3 1.4.4.3.9.6 1.3.9.4.3.8.7 1 1.2.4 1-.2 2.1-1.3 2.3-.4.1-.9.1-1.4 0-.8-.1-1.2-.7-1.1-1.5 0-.1.1-.1.1-.2.1.1.2.2.2.3.3.7.7 1.2 1.5 1.2.4 0 .9-.3 1.2-.6.3-.4.2-1-.2-1.4-.4-.4-.9-.6-1.3-1s-.9-.9-1.1-1.5c-.2-1.2.7-2 2.1-1.9zm4.3 3.3v-2.2c0-.4-.1-.7-.6-.7-.1 0-.2-.1-.2-.2.1 0 .2-.1.3-.1h2c.1 0 .2.1.3.1l-.2.2c-.5 0-.6.3-.6.7v4.4c0 .4.1.7.6.7.1 0 .2.1.2.2-.1 0-.2.1-.3.1h-2c-.1 0-.2-.1-.3-.1l.2-.2c.5 0 .6-.3.6-.8v-2.1z"/><path fill="#282526" d="M48.7 16.5v-2.3c0-.4-.1-.7-.6-.7-.1 0-.2-.1-.2-.1.1 0 .2-.1.2-.1h2c.1 0 .2.1.3.1-.1.1-.2.2-.3.2-.4 0-.6.3-.6.6v4.6c0 .4.1.7.6.7.1 0 .2.1.3.1-.1 0-.2.1-.3.1h-2c-.1 0-.2-.1-.3-.1.1-.1.2-.2.3-.2.5 0 .6-.3.6-.7v-2.2z"/><path fill="#0E73BA" d="M96.2 2.4c0-.6.5-1.1 1.2-1.1.6 0 1.1.5 1.1 1.1 0 .6-.5 1.1-1.2 1.1-.6 0-1.1-.5-1.1-1.1z"/><path fill="#FDFDFD" d="M9 1.6h1.4c.1.1.1.3.1.4-.3 2.2-.1 4.3-.1 6.5 0 .8 0 1.5.1 2.3.3 2.1 1.7 3.5 3.6 3.8.3 0 .6.1.6-.3 0-.1.1-.2.1-.2.2-.1.3-.1.5-.1 1.7-.2 2.6-1.2 3.1-2.7.2-.6.3-1.3.3-1.9V3.7c0-.6-.1-1.1-.2-1.6 0-.2-.1-.4.1-.5h2.2c.2.2.2.4.2.6v8.6c0 3.1-2.8 5.7-5.9 5.7-1.6 0-3-.5-4.2-1.6-.9-.8-1.4-1.8-1.8-3v-.2c-.1-.1-.1-.3-.1-.4-.1-3 0-6 0-9-.2-.3-.2-.5 0-.7z"/><path fill="#CACBCC" d="M26.8 15.1c-.1 4.5-1.5 8.2-5.6 10.5-1.9 1-3.9 1.8-5.9 2.7-.1.1-.3.1-.4.1-.1-.1-.2-.3-.2-.5v-2.8c0-.1 0-.1.1-.1.1-.1.2-.2.4-.2 1-.1 2-.3 2.9-.5 1.4-.4 2.8-1 3.9-2 1.1-.9 2-2 2.8-3.2.7-1.1 1.2-2.3 1.5-3.5.1-.3.1-.6.5-.5z"/><path fill="#FAFAFA" d="M22.6 1.6h.7c.2.2.1.4.1.6v9.6c0 1.8-.8 3.4-1.9 4.8-1.6 1.9-3.7 2.9-6.1 3.1H15c-1.3-.1-2.6-.3-3.7-.8-.2-.1-.4-.2-.5-.4.2-.3.4-.2.6-.1.8.3 1.5.5 2.4.6h.5c.5 0 .5 0 .6-.5 0-.2 0-.3.1-.5.2-.2.4-.2.7-.2 3.8-.4 6.3-3.3 6.8-7 .2-1.9.2-3.7.2-5.6v-3c-.2-.2-.3-.5-.1-.6z"/><path fill="#02497D" d="M14.9 24.9s0 .1 0 0c-.5.3-.9.1-1.4.1-2.1-.2-4.1-1-5.8-2.3C6.1 21.5 4.8 20 4 18.2c-.4-.9-.7-1.7-1.1-2.6 0-.2-.1-.3-.1-.5v-13c0-.2.2-.3.3-.5.3.2.2.4.2.7v4.9c.1 1.8 0 3.7.3 5.5.2 1.5.6 3 1.2 4.4.1.2.1.4.3.5.1 0 .1.1.2.1.3.5.5.9.8 1.4 1.1 1.6 2.5 2.9 4.2 3.8 1.1.5 2.3.8 3.6 1 .3 0 .7 0 1 .3.1.2.2.4 0 .7z"/><path fill="#C7C8CA" d="M14.9 24.9V24c.2-.2.5-.2.8-.2 2.7-.2 5-1.3 6.8-3.3.4-.4.7-.9 1-1.3.1-.2.2-.4.5-.5.5-.6.9-1.3 1.1-2 .5-1.4.9-2.9 1-4.4.1-.8.1-1.7.1-2.5V2.3c0-.3-.1-.5.2-.8.1.1.4.2.4.3V15c-.1.2-.3.3-.3.5-.5 2.3-1.7 4.2-3.4 5.9-1.9 2-4.3 2.9-7 3.3-.4.1-.8.2-1.2.2z"/><path fill="#F4F4F4" d="M24.9 1.6h.5c.2.2.2.4.2.6v11.1c0 .2 0 .3-.1.5-.3.2-.4.6-.5.9-.5 1.4-1.2 2.6-2.2 3.7-1.7 1.8-3.7 2.8-6.2 3.2-.4.1-.8.1-1.2.1-.2 0-.3 0-.5-.1-.1-.1-.1-.2-.1-.4s0-.3.1-.5c.2-.2.5-.2.7-.2 2.9-.2 5.1-1.5 6.9-3.7 1.4-1.8 2-3.9 2.2-6.2.2-2.8 0-5.5.1-8.3 0-.2-.1-.5.1-.7z"/><path fill="#EBEBEC" d="M14.9 19.5c4.2 0 7.9-3.3 8.4-7.5.1-.9 0-1.8 0-2.7V1.5h1c.2.2.1.4.1.6 0 1.7.1 3.4 0 5.1-.1 1.6 0 3.3-.3 4.9-.5 2.9-1.9 5.1-4.4 6.7-1.3.8-2.7 1.2-4.2 1.3-.2 0-.4 0-.6-.1-.2-.1-.2-.3 0-.5z"/><path fill="#01518C" d="M14.9 26v2.4c-1.1-.4-2.2-.7-3.3-1.2-1.8-1-3.6-1.9-5.2-3.1C4.9 23 4 21.2 3.5 19.4c.3-.2.4.1.5.3.4.6.9 1.3 1.4 1.9C6.6 23 8 24.1 9.6 24.9c1.4.7 2.9 1.1 4.5 1.1.3-.2.6-.2.8 0z"/><path fill="#F4F4F4" d="M22.6 1.6c0 2.1.1 4.2 0 6.3-.1 1.6-.2 3.2-.6 4.7-.6 2.8-3.5 5.2-6.3 5.4-.3 0-.6.1-.8.1h-.1c-.1-.1-.1-.2-.1-.3v-.2c0-.1 0-.2.1-.3l.1-.1c.9-.2 1.7-.3 2.6-.6 2.1-1 3.4-2.7 3.8-5 .2-1.1.3-2.2.3-3.3V2.5c0-.2-.1-.5.1-.7.4-.2.6-.2.9-.2z"/><path fill="#EDEDEE" d="M21.8 1.6v7c0 1.7-.2 3.4-1 5-1.3 2.3-3.2 3.5-5.9 3.6-.1-.1-.1-.2-.1-.3 0-.2 0-.3.1-.5 3.4 0 5.9-2.6 5.9-6V1.5c.3.1.6.1 1 .1zm-6.9 18.5c2.5 0 4.6-.9 6.4-2.6 1.6-1.6 2.6-3.6 2.8-5.8.2-3.4.2-6.7.3-10.1h.6v7.6c0 2.2-.3 4.4-1.4 6.4-.9 1.6-2.1 2.9-3.7 3.8-1.4.8-2.8 1.3-4.4 1.3-.2 0-.4.1-.6.1l-.1-.1v-.4c0-.2 0-.2.1-.2z"/><path fill="#004E86" d="M14.9 26c-2.4-.1-4.6-.7-6.6-1.9-1.6-1-2.9-2.3-3.9-3.9-.2-.3-.5-.6-.7-.8-.2-1.3-.4-2.5-.6-3.8.2.5.5.9.7 1.4.6 1.6 1.4 3 2.5 4.3 1.9 2 4.2 3.2 6.9 3.6.6.1 1.2.1 1.8.2-.1.2-.1.6-.1.9z"/><path fill="#C4C5C6" d="M25.3 13.9c0-.2.1-.3.1-.5V1.5h1v7.7c0 2.1-.1 4.3-.8 6.3-.3 1.1-.9 2.1-1.4 3.1 0 .1-.2.1-.3.2-.1-.2 0-.3 0-.4.7-1.3 1.1-2.6 1.1-4.1.1-.1.2-.3.3-.4z"/><path fill="#C1C2C3" d="M14.9 20.1c-.2.3-.5.2-.8.2-3.2-.3-5.6-1.9-7.3-4.7-1-1.7-1.4-3.5-1.5-5.4-.2-2.7-.1-5.3-.1-8 0-.2-.1-.5.1-.7h.6c.2.2.2.5.2.8v6.5c0 1.3.1 2.6.5 3.8 0 0 0 .1.1.1.1.1 0 .3.1.5.4.6.6 1.4 1 2 .7 1.1 1.6 2.1 2.8 2.8.1.1.3.1.3.3 1.3.8 2.7 1 4.2 1.1-.2.3-.2.5-.2.7z"/><path fill="#CDCED0" d="M5.3 1.6v6.9c0 1.8.1 3.7.8 5.5.7 1.9 1.9 3.5 3.5 4.7 1.6 1.1 3.3 1.6 5.2 1.6v.5c-.4.3-.9.2-1.3.1-3.8-.7-6.4-2.7-7.9-6.2-.5-1.3-.8-2.6-.9-4-.2-2.8 0-5.5-.1-8.3 0-.2 0-.4.1-.6.2-.2.4-.2.6-.2z"/><path fill="#F4F4F4" d="M6.6 13c0-.1 0-.1 0 0-.3-.8-.4-1.6-.4-2.4V2.4c0-.3 0-.5.2-.8h.3c.1.2.1.4.1.7v6.2c0 1.3.1 2.6.4 3.8.9 3.4 3.6 5.7 7.1 6 .2 0 .4 0 .6.2.1.5-.1.8-.7.7-1-.2-2-.5-3.1-.7h-.4c-2.1-1.1-3.3-2.9-4.1-5.1-.1-.2 0-.3 0-.4z"/><path fill="#D8D9DA" d="M4.8 1.6v7.5c0 2.6.5 5 1.9 7.3.8 1.3 1.9 2.2 3.2 3 1.5.9 3.2 1.4 5 1.3v.6c-.4.2-.8.2-1.2.1-3.5-.6-6.1-2.4-7.9-5.4-.6-1-1-2.1-1.2-3.3-.1-.5-.1-.9-.4-1.4V2.4c0-.3-.1-.6.2-.8h.4z"/><path fill="#F4F4F4" d="M18.6 1.6c.5 2.7.2 5.4.3 8.1 0 2.2-1.2 3.9-3.1 4.4-.3.1-.6 0-.8.1-.1-.1-.1-.1-.1-.2v-.3c0-.1.1-.2.1-.2.1-.1.2-.1.4-.1 1.6-.2 2.6-1.7 2.7-3.3.1-1.9.1-3.7.1-5.6 0-.8 0-1.7-.3-2.5-.1-.1-.1-.3 0-.4h.7z"/><path fill="#EBEBEC" d="M14.9 18.5c-4 0-7.3-2.8-7.9-6.7-.2-1.5-.3-3-.3-4.5V1.6h.5c.1.1.1.4.1.6v6.4c.1 1.4.1 2.8.6 4.1.9 2.4 2.5 4.1 5 4.8.5.2 1.1.3 1.7.3.1 0 .3 0 .4.1-.1.2-.1.4-.1.6z"/><path fill="#004373" d="M5.2 17.7c-.1-.1-.3-.2-.4-.3-1-1.8-1.4-3.7-1.5-5.7-.1-3.4-.1-6.8-.1-10.1h.6c.1.2.1.4.1.7v4c0 2.2.1 4.3.4 6.4 0 .2.1.4.2.5.1.3.1.6.1.9.1 1.1.3 2.1.7 3.1 0 .2.1.3-.1.5z"/><path fill="#F4F4F4" d="M14.9 14.3c.1.5-.2.5-.6.5-2.2-.2-3.9-2.1-4-4.3-.1-2.5-.1-4.9-.1-7.4 0-.5.1-1.1.2-1.6h.7c.1.1.1.2 0 .4-.2.7-.2 1.4-.2 2.2v5.8c0 1.3.4 2.4 1.4 3.3.5.5 1.2.8 1.9.9.3 0 .5 0 .7.2z"/><path fill="#EDEDEE" d="M17.7 1.6c.8 2.4.4 4.8.5 7.2 0 .8-.1 1.6-.3 2.3-.4 1.4-1.5 2.2-3 2.3-.1-.1-.1-.1-.1-.2s0-.3.1-.4c.1-.1.2-.1.3-.1 1.3-.3 1.9-.9 2.1-2.2.1-.6 0-1.2 0-1.8V2.5c0-.4-.1-.7.2-1 0 .1.1.1.2.1z"/><path fill="#003F6C" d="M4.4 13.3c-.2-.7-.4-1.3-.5-1.9-.1-3.3-.1-6.6-.2-9.8h.7v9.9c.1.6.3 1.2 0 1.8z"/><path fill="#00365E" d="M17.4 2.6v1.2c-.2.2-.4.2-.6.2-1.4 0-2.8-.1-4.2 0-.1 0-.2 0-.4-.1-.2-.2-.2-.5-.2-.8V2c0-.2 0-.4.2-.5h.1c.1.1.1.2.1.2.1.6.1.6.8.6h3.5c.3.1.5.1.7.3z"/><path fill="#CACBCC" d="M14.9 16.9v.4c-.5.2-1 0-1.5-.1-2.6-.6-4.8-2.8-5.3-5.5-.2-1.2-.2-2.3-.3-3.5v-6c0-.2 0-.4.1-.6h.4c.2.2.1.4.1.6 0 1.2.1 2.4 0 3.5-.1 1.4-.1 2.9 0 4.3.2 3 1.6 5.5 4.9 6.5.2.1.4.1.6.1.4.1.7.1 1 .3z"/><path fill="#C1C2C3" d="M14.9 16.9c-2.7 0-5.2-1.8-6-4.4-.7-2.1-.7-4.3-.6-6.5.1-1.5 0-3 0-4.4h.2c.2.2.2.4.2.7v4.8c0 1.4.1 2.7.2 4.1 0 .1 0 .3.1.4 0 .1.1.2.1.3-.1.1 0 .1 0 .2.4 1.2 1 2.3 2.1 3.1 1.1.9 2.3 1.3 3.7 1.3v.4z"/><path fill="#D8D9DA" d="M8 1.6v5.8c0 1.5.1 3.1.4 4.6.6 2.8 3.1 4.9 5.9 5.1.2 0 .4.1.6.1v.3c-.9.2-1.8-.1-2.6-.4-2.4-1-3.8-2.9-4.4-5.4-.2-.9-.2-1.8-.3-2.8-.1-2.2 0-4.5 0-6.7 0-.2 0-.4.1-.6H8z"/><path fill="#E1E2E3" d="M14.9 18c-3.4 0-6.3-2.2-7.2-5.4-.5-1.6-.6-3.3-.5-4.9V1.6h.3c.2.2.1.4.1.6v5.5c0 1.6 0 3.3.5 4.9.9 2.7 2.8 4.3 5.5 4.9.4.1.9 0 1.3.2v.3z"/><path fill="#002E50" d="M17.4 2.6H13c-.6 0-.8-.1-.7-.7v-.3h5.1v1z"/><path fill="#DBDBDC" d="M14.9 17.7c-3.5 0-6.5-2.5-7.1-5.9-.3-1.7-.3-3.4-.4-5.2-.1-1.7 0-3.4 0-5.1h.3c0 2-.1 4.1 0 6.1.1 1.9 0 3.8.8 5.6.9 2.3 3.5 4.1 5.9 4.2.2 0 .4.1.6.1-.1.1-.1.1-.1.2z"/><path fill="#CDCED0" d="M12.2 1.6v.5c-.2.4-.3.9-.3 1.4v5.9c0 .9.2 1.9.8 2.7.4.5 1 .9 1.6 1 .2 0 .4.1.5.2v.4c-.3.2-.6.1-.8 0-1.3-.4-2.1-1.2-2.5-2.5-.2-.8-.3-1.6-.3-2.5V4.2c0-.6.1-1.2.2-1.8.1-.3.1-.6.4-.7.2-.1.3-.1.4-.1z"/><path fill="#B3B4B6" d="M6.4 1.6v7.9c0 1.1.1 2.3.2 3.4-.1-.3-.3-.6-.4-.9-.1-1.3-.3-2.6-.3-3.8V1.6h.5z"/><path fill="#EBEBEC" d="M14.9 14.3c-2.8-.3-4-2.2-4.1-4.8v-6c0-.7.2-1.3.3-2h.3c.1.1.1.3.1.5-.2.7-.2 1.5-.2 2.2 0 1.8-.1 3.6 0 5.5s.8 3.1 2.5 3.8c.4.1.8.1 1.1.3v.5z"/><path fill="#E1E2E3" d="M14.9 13.9c-1.6 0-3-1-3.4-2.6-.2-.9-.3-1.9-.3-2.9 0-1.6 0-3.1.1-4.7 0-.7.1-1.4.2-2.1h.5c-.2 1-.4 1.9-.4 2.9 0 1.8 0 3.7.1 5.6.1 1.5.8 3.4 3.4 3.6-.2 0-.2.1-.2.2z"/><path fill="#B3B4B6" d="M9 11.5c-.1-.5-.3-1-.4-1.5 0-2.8 0-5.6-.1-8.4H9v9.9z"/><path fill="#FDFDFD" d="M91 3.8V2.2c0-.2.2-.4.3-.4.9-.1 1.7 0 2.3.7.6.8.5 1.6.1 2.5-.3.7-1.8 1.1-2.5.8-.2 0-.2-.2-.2-.3-.1-.6 0-1.1 0-1.7z"/><path fill="#FAFAFA" d="M32.8 3.9V2.3c0-.2.2-.4.4-.4 1.8-.3 3.1 1.2 2.5 2.9-.3.7-.8 1.1-1.8 1.1-1.1 0-1.1 0-1.1-1v-1z"/><path fill="#FDFDFD" d="M78.9 5.5c0-1.3.3-2.6 1.5-3.4 1.7-1.1 3.9-.4 4.7 1.6.5 1.2.6 2.5.3 3.8-.3 1.4-1.2 2.4-2.4 2.5-1.4.2-2.6-.3-3.2-1.5-.5-.9-.7-1.9-1-2.9l.1-.1z"/><path fill="#FAFAFA" d="M53.5 6.3c-1.2 0-1.2 0-.8-1.1.2-.6.5-1.3.7-1.9 0-.1.1-.2.2-.3.1.1.1.2.2.3.2.8.5 1.7.8 2.5.2.4 0 .5-.4.5h-.7zm14.8 8.8v-.4c.1-.4 0-.9.2-1 .4-.3 1.3.1 1.7.5.3.5.3 1.4 0 1.8-.3.4-1.2.7-1.7.5-.1 0-.2-.2-.2-.3v-1.1z"/><path fill="#F4F4F4" d="M96.8 3c-.4-.4-.4-.9 0-1.2.2-.2.8-.3 1-.1.5.2.5.7.2 1.2h-.1c-.2-.1-.4-.3-.3-.6 0-.3-.1-.3-.3-.3-.3 0-.2.1-.2.3 0 .3 0 .5-.2.7h-.1z"/><path fill="#EBEBEC" d="M96.8 3v-.2c.2 0 .3-.1.5-.1h.1c.2 0 .3.1.5.2h.1c-.3.5-.7.5-1.2.1z"/><path fill="#B3B4B6" d="M9.1 11.9l-.1-.1.1-.1v.2z"/><path fill="#FAFAFA" d="M25.3 13.9c0 1.6-.4 3.2-1.2 4.6-.1.1-.1.2-.1.3-1.1 1.6-2.4 3-4.1 3.9-1.3.7-2.6 1.1-4 1.2-.3 0-.6.1-.9.1l-4.2-.9c-.1 0-.3-.1-.4-.2-.1-.3.1-.3.2-.3.2 0 .4.1.5.1.9.3 1.9.5 2.9.5.8 0 .8 0 .8-.8v-.7c0-.1.1-.2.1-.2 2.7 0 5.1-.9 7.1-2.7 1.5-1.3 2.4-2.9 3-4.7 0 0 .2-.1.3-.2z"/><path fill="#EBEBEC" d="M14.9 21.8v.8c-.2.2-.3.1-.5.1-3.2-.3-5.9-1.5-8.2-3.8-.3-.3-.5-.7-.8-1l-.1-.1c-.3-1.2-.5-2.3-.8-3.5.3-.2.4.1.4.3.2.4.3.9.5 1.3 1.8 3.3 4.5 5.3 8.3 5.8.4-.1.8-.3 1.2.1z"/><path fill="#F4F4F4" d="M5.3 17.8c.1.1.3.1.4.2 1.9 2.4 4.4 3.8 7.4 4.3.6.1 1.1.1 1.7.2 0 1-.3 1.2-1.6.9-.9-.2-1.8-.4-2.6-.6-.1 0-.2.1-.4.1-2.2-1.1-3.9-2.8-4.9-5.1z"/><path fill="#E1E2E3" d="M14.9 21.8c-1.1-.2-2.3-.3-3.4-.6-2.1-.6-3.7-1.8-5-3.5-.7-1-1.2-2.1-1.8-3.1l-.3-.3c0-.3 0-.6-.1-.9v-1.8c.1.3.3.7.3 1 .4 2.5 1.6 4.6 3.5 6.2 1.9 1.6 4.1 2.5 6.6 2.5v.4c.2-.1.2 0 .2.1z"/><path fill="#B3B4B6" d="M6.6 13c0 .1.1.2.1.3-.1-.1-.1-.2-.1-.3z"/><path fill="#075C99" d="M17.4 8.8v1.9c-.2.1-.4.1-.6.1h-4.2c-.1 0-.2 0-.2-.1-.4-.6-.4-1.3-.2-2 .1-.1.2-.1.4-.1 1.4.1 2.8 0 4.2 0 .2.1.4 0 .6.2z"/><path fill="#004E86" d="M17.4 8.8c-1.7 0-3.4-.1-5.1-.1-.4-.5-.3-1.1-.1-1.7.2-.2.4-.1.7-.1h3.9c.2 0 .5 0 .7.2-.1.5-.1 1.1-.1 1.7z"/><path fill="#0264AB" d="M12.3 10.8c.8 0 1.6-.1 2.4-.1h2.7c-.2 1.3-1.1 2.1-2.5 2.2-.2.1-.4.1-.7.1-.9-.2-1.6-.8-1.9-1.7 0-.2-.1-.4 0-.5z"/><path fill="#02497D" d="M17.4 7h-5.1c-.4-.5-.3-1-.1-1.6.2-.2.4-.1.7-.1h3.9c.2 0 .5 0 .7.2-.1.5-.1 1-.1 1.5z"/><path fill="#003F6C" d="M17.4 5.4h-5.1c-.3-.4-.3-1.1 0-1.5 1.7 0 3.4-.1 5.1-.1v1.6z"/><path fill="#C1C2C3" d="M12.3 3.9v4.8c0 .7 0 1.4.1 2.1.2 1.3 1.1 2 2.5 2.1v.3c-1.7-.1-2.9-1.3-3-3-.1-2.4-.1-4.7-.1-7.1 0-.4.3-.8.5-1.1v1.9z"/><path fill="#0E73BA" d="M97.9 2.9c-.2-.1-.3-.1-.5-.2 0 .1-.2-.1-.1.1-.2 0-.4 0-.5.1.1-.2.1-.4.2-.6v-.4c.2 0 .5 0 .7.1.1 0 0 .3.1.4 0 .1.1.3.1.5z"/><path fill="#D8D9DA" d="M97.5 2.2c-.1.1-.1.1-.2.1 0-.1-.1-.1-.1-.2s.1-.1.1-.1c.1 0 .2.1.2.2z"/><path fill="#EBEBEC" d="M97.4 2.8c0-.1-.1-.2-.1-.2s.1.1.1.2c0-.1 0 0 0 0z"/></svg></svg>