<svg width="162" height="200" viewBox="0 0 162 200" xmlns="http://www.w3.org/2000/svg" xmlns:xlink="http://www.w3.org/1999/xlink"><svg viewBox="0 0 162 40" width="162" height="40"><path d="M28.4 14.6c-1.2 0-2.2.4-2.8 1.3s-1 2-1 3.5c0 1.6.3 2.8 1 3.6s1.6 1.2 2.9 1.2c.5 0 1.1-.1 1.6-.2s1-.2 1.6-.4v1.8c-1 .4-2.2.6-3.4.6-1.9 0-3.3-.6-4.3-1.7s-1.5-2.8-1.5-4.9c0-1.3.2-2.5.7-3.5s1.2-1.8 2.1-2.3 2-.8 3.3-.8c1.3 0 2.5.3 3.6.8l-.8 1.7c-.4-.2-.9-.4-1.4-.5s-1-.2-1.6-.2zm17.4 4.8c0 2.1-.5 3.7-1.6 4.9S41.7 26 39.8 26c-1.9 0-3.4-.6-4.5-1.7s-1.6-2.8-1.6-4.9.5-3.8 1.6-4.9 2.5-1.7 4.5-1.7c1.9 0 3.4.6 4.4 1.7s1.6 2.8 1.6 4.9zm-9.8 0c0 1.6.3 2.8 1 3.6s1.6 1.2 2.8 1.2c1.2 0 2.2-.4 2.8-1.2s1-2 1-3.6-.3-2.8-.9-3.6-1.6-1.2-2.8-1.2c-1.3 0-2.2.4-2.9 1.2s-1 2-1 3.6zm18.1 6.5l-3.7-10.7h-.1c.1 1.6.1 3.1.1 4.5v6.2h-1.9V13h3l3.6 10.2h.1L58.8 13h3v12.8h-2v-8.9s.1-1.6.1-1.9h-.1L56 25.9h-1.9zm16.6 0L67 15.1h-.1c.1 1.6.1 3.1.1 4.5v6.2h-1.9V13h3l3.6 10.2h.1L75.4 13h3v12.8h-2v-8.9s.1-1.6.1-1.9h-.1l-3.9 10.7h-1.8zm18.3 0h-7.3V13H89v1.8h-5.2v3.5h4.8V20h-4.8v4H89v1.9zm4.9-5.2v5.1h-2.1V13h3.6c1.7 0 2.9.3 3.7.9s1.2 1.6 1.2 2.8c0 1.6-.8 2.7-2.5 3.4l3.6 5.7H99l-3-5.1h-2.1zm0-1.7h1.5c1 0 1.7-.2 2.1-.5s.7-.9.7-1.6c0-.7-.2-1.2-.7-1.6s-1.2-.5-2.1-.5H94V19zm14.9-4.4c-1.2 0-2.2.4-2.8 1.3s-1 2-1 3.5c0 1.6.3 2.8 1 3.6s1.6 1.2 2.9 1.2c.5 0 1.1-.1 1.6-.2s1-.2 1.6-.4v1.8c-1 .4-2.2.6-3.4.6-1.9 0-3.3-.6-4.3-1.7s-1.5-2.8-1.5-4.9c0-1.3.2-2.5.7-3.5s1.2-1.8 2.1-2.3 2-.8 3.3-.8c1.3 0 2.5.3 3.6.8l-.8 1.7c-.4-.2-.9-.4-1.4-.5s-1.1-.2-1.6-.2zm5.9 11.3V13h2.1v12.8h-2.1zm13.5 0l-1.3-3.6H122l-1.3 3.6h-2.2l4.8-12.9h2.3l4.8 12.9h-2.2zm-1.8-5.4l-1.2-3.5c-.1-.2-.2-.6-.4-1.1s-.3-.9-.3-1.1c-.2.7-.4 1.5-.7 2.4l-1.2 3.3h3.8zm5.7 5.4V13h2.1v11h5.4v1.8h-7.5z" fill="#787878"/></svg><svg viewBox="0 0 162 40" width="162" height="40" y="40"><path fill="#09B39D" d="M127.9 33.1h-20.3l-1.7 1.8v1.8h23.8v-1.8zm-2.7-5.4h-14.9l-1.8 1.9v1.7H127v-1.7z"/><path fill="#B4B4B4" d="M8.8 2.4c1.8 0 3.3.3 4.5.9 1.2.6 2 1.6 2.5 2.9.3.9.6 2 .6 3.3.1 1.3.1 2.8.1 4.5 0 1.8 0 3.3-.1 4.6-.1 1.3-.3 2.4-.6 3.3-.3.7-.7 1.4-1.2 1.9s-1.1 1-1.7 1.3c-.7.3-1.4.5-2.1.7-.8.1-1.5.2-2.4.2H0V2.4h8.8zm1.4 10.1c0-.7 0-1.3-.1-1.9 0-.6-.1-1.1-.2-1.4-.3-1-1.1-1.5-2.3-1.5H6.3v13.1h1.3c1 0 1.7-.3 2-.9.4-.6.5-1.4.5-2.5v-4.9h.1zm25.1 4.1c0 1-.1 2-.2 3s-.4 1.9-.8 2.7c-.6 1.2-1.5 2.1-2.7 2.7-1.2.6-2.7 1-4.5 1-1.8 0-3.3-.3-4.6-.9-1.2-.6-2.1-1.5-2.7-2.6-.4-.8-.7-1.8-.8-2.9-.1-1.1-.1-2.1-.1-3.1v-5c0-.6 0-1.1.1-1.7 0-.5.1-1.1.2-1.6.3-1.9 1.1-3.4 2.4-4.6 1.3-1.1 3.1-1.7 5.5-1.7 1.4 0 2.6.2 3.6.6 1 .4 1.9.9 2.5 1.7.7.7 1.2 1.6 1.6 2.5.3 1 .5 2 .5 3.3v6.6zM29 11.3v-1.2c0-.4 0-.8-.1-1.1-.1-.4-.3-.8-.6-1.1-.3-.3-.7-.4-1.1-.4-.4 0-.8.1-1.2.4-.3.3-.5.7-.6 1.1 0 .4-.1.8-.1 1.2v8.1c0 .4.1.8.1 1.2.1.5.3.8.6 1 .3.2.7.3 1.2.3 1.3 0 1.9-.8 1.9-2.3l-.1-7.2zm25.2 5.3c0 1-.1 2-.2 3s-.4 1.9-.8 2.7c-.6 1.2-1.5 2.1-2.7 2.7-1.2.6-2.7 1-4.5 1-1.8 0-3.3-.3-4.6-.9-1.2-.6-2.1-1.5-2.7-2.6-.4-.8-.7-1.8-.8-2.9-.1-1.1-.1-2.1-.1-3.1v-5c0-.6 0-1.1.1-1.7 0-.5.1-1.1.2-1.6.3-1.9 1.1-3.4 2.4-4.6 1.3-1.1 3.1-1.7 5.5-1.7 1.4 0 2.6.2 3.6.6 1 .4 1.9.9 2.5 1.7.7.7 1.2 1.6 1.6 2.5.3 1 .5 2 .5 3.3v6.6zm-6.3-5.3v-1.2c0-.4-.1-.8-.1-1.1-.1-.4-.3-.8-.6-1.1-.3-.3-.7-.4-1.1-.4-.5 0-.8.1-1.2.4-.3.3-.5.6-.6 1.1 0 .4-.1.8-.1 1.2v8.1c0 .4.1.8.1 1.1.1.5.3.8.6 1 .3.2.7.3 1.2.3 1.3 0 1.9-.8 1.9-2.3l-.1-7.1zm19.3 14.6L64.3 17h-1.2v8.9h-6.3V2.4h9.1c2.2 0 4 .6 5.4 1.8 1.4 1.2 2 3 2 5.4 0 1.4-.3 2.6-.8 3.6S71.1 15 70 15.7l3.7 10.2h-6.5zm-.4-16.2c0-.7-.2-1.3-.5-1.7-.4-.4-.8-.6-1.4-.6h-1.8v4.4h1.8c.2 0 .4 0 .7-.1.2-.1.4-.2.6-.4.2-.2.3-.4.5-.7 0-.2.1-.5.1-.9zm24.5 9c0 2.3-.8 4.1-2.3 5.4-1.5 1.3-3.6 1.9-6.2 2-2 0-3.7-.4-5-1.1-1.3-.7-2.5-1.8-3.4-3.2l4.2-3.5c.7.9 1.4 1.6 2 2 .7.4 1.4.6 2.1.6.8 0 1.4-.2 1.7-.5.3-.3.5-.8.5-1.2 0-.3-.1-.6-.2-.9-.1-.3-.3-.5-.6-.7-.3-.2-.6-.4-1.1-.6-.4-.2-1-.4-1.6-.6-1-.4-1.9-.8-2.6-1.2-.8-.4-1.4-.9-2-1.4-.5-.5-.9-1.1-1.2-1.8-.3-.7-.4-1.5-.4-2.4 0-1 .2-2 .6-2.9.4-.9.9-1.7 1.6-2.3.7-.6 1.5-1.1 2.4-1.5.9-.4 1.9-.6 3-.6 1.8 0 3.3.3 4.6.8 1.3.6 2.3 1.5 3.2 2.6l-3.9 4c-.6-.7-1.3-1.3-2-1.6-.7-.3-1.3-.4-1.9-.4-.5 0-.9.1-1.2.4-.3.3-.5.6-.5 1.1 0 .5.3.9.8 1.2.5.3 1.5.7 2.6 1.1 1.2.5 2.2.9 3.1 1.5.8.5 1.5 1.1 2 1.6.5.6.9 1.3 1.1 1.9.5.6.6 1.3.6 2.2zm12-11v18.2H97V7.7h-5V2.4h16.2v5.3h-4.9zm6.9 18.2V2.4h15.1v5.3h-8.7v3.5h7.3v5.3h-7.3v4h8.7v5.3h-15.1zm34.1-16.1c0 1.1-.2 2.2-.5 3.1-.4.9-.9 1.7-1.5 2.3-.7.7-1.5 1.2-2.4 1.5-.9.4-2 .5-3.1.5h-2.5v8.7H128V2.4h8.7c1.1 0 2.1.1 3.1.4.9.3 1.8.7 2.4 1.3.7.6 1.2 1.4 1.6 2.3.3 1 .5 2.1.5 3.4zm-6.2-.1c0-.8-.2-1.3-.6-1.7-.4-.4-.9-.5-1.6-.5h-1.8v4.6h1.8c.6 0 1-.2 1.5-.6.5-.3.7-.9.7-1.8zm23.9 9c0 2.3-.8 4.1-2.3 5.4-1.5 1.3-3.6 1.9-6.2 2-2 0-3.7-.4-5-1.1-1.3-.7-2.5-1.8-3.4-3.2l4.2-3.5c.7.9 1.4 1.6 2 2 .7.4 1.4.6 2.1.6.8 0 1.4-.2 1.7-.5.3-.3.5-.8.5-1.2 0-.3-.1-.6-.2-.9-.1-.3-.3-.5-.6-.7-.3-.2-.6-.4-1.1-.6-.4-.2-1-.4-1.6-.6-1-.4-1.9-.8-2.7-1.2-.8-.4-1.4-.9-2-1.4-.5-.5-.9-1.1-1.2-1.8-.3-.7-.4-1.5-.4-2.4 0-1 .2-2 .6-2.9.4-.9.9-1.7 1.6-2.3.7-.6 1.5-1.1 2.4-1.5.9-.4 1.9-.6 3-.6 1.8 0 3.3.3 4.6.8 1.3.6 2.3 1.5 3.2 2.6l-3.9 4c-.6-.7-1.3-1.3-2-1.6-.7-.3-1.3-.4-1.9-.4-.5 0-.9.1-1.2.4-.3.3-.5.6-.5 1.1 0 .5.3.9.8 1.2.5.3 1.5.7 2.6 1.1 1.2.5 2.2.9 3.1 1.4.8.5 1.5 1.1 2 1.7.5.6.9 1.3 1.1 1.9.6.6.7 1.3.7 2.2z"/></svg><svg viewBox="0 0 162 40" width="162" height="40" y="80"><path d="M43.7 24.7v-8c0-2.2-1-3-2.7-3-1.6 0-3 1-3.6 1.7.1.4.1.7.1 1.1v8.2h-1.7v-8c0-2.2-1-3-2.8-3-1.5 0-2.9 1-3.4 1.6v9.4h-1.7V12.5h1.7v1.3c.7-.6 2.1-1.6 4.1-1.6 1.8 0 2.8.9 3.3 1.9.9-.8 2.6-1.9 4.5-1.9 2.4 0 3.9 1.4 3.9 4.4v8.1h-1.7zm11.1.3c-3.7 0-6.5-2.8-6.5-6.4 0-3.6 2.9-6.5 6.6-6.5 3.7 0 6.5 2.9 6.5 6.5-.1 3.6-2.9 6.4-6.6 6.4zm4.8-6.4c0-2.9-2.2-5-4.8-5-2.8 0-4.8 2.1-4.8 5.1 0 2.8 2.3 4.9 4.8 4.9 2.8 0 4.8-2 4.8-5zm8.4 6.5l-5.6-12.7h1.9l3.3 7.8c.5 1.1.6 1.7.7 2 .1-.3.2-.8.7-2l3.3-7.8h1.8l-5.6 12.7H68zM77.1 10c-.7 0-1.3-.6-1.3-1.3 0-.8.6-1.3 1.3-1.3.8 0 1.3.6 1.3 1.3 0 .8-.5 1.3-1.3 1.3zm-.8 14.7V12.5H78v12.2h-1.7zm14.1 0v-7.2c0-2.6-.9-3.8-3.3-3.8-1.7 0-3.1 1-3.6 1.6v9.3h-1.7V12.5h1.7v1.3c.7-.6 2.1-1.6 4.1-1.6 2.8 0 4.4 1.4 4.4 4.5v8h-1.6zm14.7-1.7c-1 1.2-2.7 2-4.2 2-2.9 0-5.9-2.3-5.9-6.4 0-4.2 3.2-6.5 6.7-6.5 2.5 0 4.2.9 5 1.5v11.7c0 4.6-2.9 6-5.7 6-1.9 0-3.6-.5-5-1.4l.8-1.3c1.1.8 2.7 1.2 4.2 1.2 1.8 0 4-.7 4-4.4V23zm0-8.5c-.4-.3-1.6-.9-3.4-.9-2.5 0-4.9 1.6-4.9 5 0 2.2 1.3 4.9 4.5 4.9 1.4 0 3.1-1 3.8-2.2v-6.8zm6.5 10.5c-.7 0-1.3-.6-1.3-1.3 0-.8.6-1.4 1.3-1.4.8 0 1.3.6 1.3 1.4 0 .6-.5 1.3-1.3 1.3zm15.3-2c-1 1.3-2.7 2.1-4.9 2.1-3.6 0-6.3-2.7-6.3-6.4s2.7-6.5 6.5-6.5c2.3 0 3.9 1.3 4.3 1.7l-.9 1.1c-.3-.3-1.5-1.3-3.4-1.3-2.3 0-4.7 1.6-4.7 5 0 3.1 2.2 4.9 4.8 4.9 2 0 3.1-.8 3.9-1.6l.7 1zm8.1 2c-3.7 0-6.5-2.8-6.5-6.4 0-3.6 2.9-6.5 6.6-6.5 3.7 0 6.5 2.9 6.5 6.5-.1 3.6-2.9 6.4-6.6 6.4zm4.7-6.4c0-2.9-2.2-5-4.8-5-2.8 0-4.8 2.1-4.8 5.1 0 2.8 2.3 4.9 4.8 4.9 2.9 0 4.8-2 4.8-5zm20.6 6.1v-8c0-2.2-1-3-2.7-3-1.6 0-3 1-3.6 1.7.1.4.1.7.1 1.1v8.2h-1.7v-8c0-2.2-1-3-2.8-3-1.5 0-2.9 1-3.4 1.6v9.4h-1.7V12.5h1.7v1.3c.7-.6 2.1-1.6 4.1-1.6 1.8 0 2.8.9 3.3 1.9.9-.8 2.6-1.9 4.5-1.9 2.4 0 3.9 1.4 3.9 4.4v8.1h-1.7z" fill="#8A8C8C"/><path fill="#14747F" d="M10.2 29l8.6-4.8V13.3l-8.6 4.9z"/><path fill="#9FD5CA" d="M9.4 7.8L.8 12.7l9.4 5.5 8.6-4.9z"/><path fill="#FF9E16" d="M0 14.3V23l7.5-4.3zM8.4 29v-8.7L.9 24.6z"/><path d="M18.8 11.2c.1.1.2.2.4.2s.4-.1.4-.3c0-.5-.8-.4-.8-.9 0-.3.2-.4.5-.4.2 0 .4.1.4.2h-.1c-.1-.1-.2-.1-.3-.1-.2 0-.3.1-.3.3 0 .4.8.3.8.9 0 .2-.2.5-.6.5-.2 0-.5-.1-.5-.2l.1-.2zm3 .3l-.1-1.2v-.1.1l-.7 1.3-.7-1.3v-.1.1l-.1 1.2H20l.2-1.8.7 1.4v.1-.1l.7-1.4.2 1.8z" fill="#8A8C8C" stroke="#8A8C8C" stroke-width=".2" stroke-miterlimit="10"/></svg><svg viewBox="0 0 162 40" width="162" height="40" y="120"><path d="M10.6 25.9V13h2.1v12.8h-2.1zm16.2 0h-2.6l-6.3-10.2h-.1v.6c.1 1.1.1 2.1.1 3V26H16V13h2.5L25 23.2c0-.1 0-.6-.1-1.5s-.1-1.5-.1-2V13h1.9v12.9zm7.9 0h-2.1v-11h-3.8V13h9.7v1.8h-3.8v11.1zm13 0h-7.3V13h7.3v1.8h-5.2v3.5h4.8V20h-4.8v4h5.2v1.9zm4.9-5.2v5.1h-2.1V13h3.6c1.7 0 2.9.3 3.7.9s1.2 1.6 1.2 2.8c0 1.6-.8 2.7-2.5 3.4l3.6 5.7h-2.4l-3.1-5.1h-2zm0-1.7H54c1 0 1.7-.2 2.1-.5s.7-.9.7-1.6c0-.7-.2-1.2-.7-1.6s-1.2-.5-2.1-.5h-1.4V19zm20.1 6.9h-2.6l-6.3-10.2h-.1v.6c.1 1.1.1 2.1.1 3V26H62V13h2.5l6.3 10.2h.1c0-.1 0-.6-.1-1.5s-.1-1.5-.1-2V13h1.9v12.9zm11.3 0l-1.3-3.6h-4.9l-1.3 3.6h-2.2L79.1 13h2.3l4.8 12.9H84zm-1.8-5.4L81 17c-.1-.2-.2-.6-.4-1.1-.2-.5-.3-.9-.3-1.1-.2.7-.4 1.5-.7 2.4l-1.2 3.3h3.8zm10.2 5.4h-2.1v-11h-3.8V13h9.7v1.8h-3.8v11.1zm5.8 0V13h2.1v12.8h-2.1zm16.9-6.5c0 2.1-.5 3.7-1.6 4.9S111 26 109 26c-1.9 0-3.4-.6-4.5-1.7s-1.6-2.8-1.6-4.9.5-3.7 1.6-4.9 2.5-1.7 4.5-1.7c1.9 0 3.4.6 4.4 1.7s1.7 2.8 1.7 4.9zm-9.9 0c0 1.6.3 2.8 1 3.6s1.6 1.2 2.8 1.2c1.2 0 2.2-.4 2.8-1.2s1-2 1-3.6-.3-2.8-.9-3.6c-.6-.8-1.6-1.2-2.8-1.2-1.3 0-2.2.4-2.9 1.2-.6.8-1 2-1 3.6zm23.3 6.5h-2.6l-6.3-10.2h-.1v.6c.1 1.1.1 2.1.1 3V26h-1.9V13h2.5l6.3 10.2h.1c0-.1 0-.6-.1-1.5s-.1-1.5-.1-2V13h1.9v12.9zm11.4 0l-1.3-3.6h-4.9l-1.3 3.6h-2.2L135 13h2.3l4.8 12.9h-2.2zm-1.8-5.4l-1.2-3.5c-.1-.2-.2-.6-.4-1.1-.2-.5-.3-.9-.3-1.1-.2.7-.4 1.5-.7 2.4l-1.2 3.3h3.8zm5.7 5.4V13h2.1v11h5.4v1.8h-7.5z" fill="#787878"/></svg><svg viewBox="0 0 162 40" width="162" height="40" y="160"><path fill="#5C2D91" d="M27.1 13.1l-5.2-5.3L11.8 18v10.1H15v-8.8l6.9-7 3 3z"/><path fill="#9D85BE" d="M15.3 13.1L10 7.8 0 18v10.1h3.1v-8.8l6.9-7 3.1 3z"/><path fill="#5EA85A" d="M40.6 14.8V9.4h-3.1v2.2l-3.8-3.8L23.6 18v10.1h3.2v-8.8l6.9-7 6.9 6.9 2.2-2.2z"/><path fill="#62269E" d="M37.8 19.9c-.3-.3-.6-.5-.9-.7-.4-.2-.7-.3-1.1-.3-.5 0-.9.1-1.4.4-.3.2-.5.4-.8.7-.9-.9-1.7-1.2-2.3-1.2-.3 0-.7.1-1 .2-.3.1-.6.3-.8.6-.7.7-1 1.7-1 2.8 0 .7.3 1.4.8 2 .4.5 1 1 1.7 1.5 1.2.8 2.3 1.3 2.3 1.4l.2.1.2-.1s1.2-.5 2.4-1.4c.7-.5 1.3-1 1.7-1.5.5-.7.8-1.4.8-2 .2-.8-.1-1.8-.8-2.5zM48 21.7v-.2c0-.7-.2-1.4-1.2-1.4-.7 0-1.3.3-1.3 1.2 0 .7.3 1 1.3 1.3l1.1.4c1.3.4 1.9 1.2 1.9 2.6 0 1.9-1.4 2.7-3.2 2.7-2.2 0-2.9-1-2.9-2.8v-.3h1.6v.3c0 1 .4 1.6 1.4 1.6 1 0 1.4-.5 1.4-1.3 0-.7-.3-1.1-1-1.3l-1.4-.5c-1.3-.5-1.9-1.1-1.9-2.6 0-1.7 1.2-2.4 3-2.4 2.3 0 2.8 1.3 2.8 2.4v.4H48zm5.4 2v.5c0 1.2.1 2.7 1.5 2.7 1.3 0 1.4-1.4 1.4-2H58c0 2-1.2 3.2-3.1 3.2-1.4 0-3.2-.4-3.2-4.5 0-2.3.5-4.8 3.3-4.8 2.5 0 3.1 1.5 3.1 4v.9h-4.7zm2.8-1.2V22c0-1.1-.4-2-1.4-2-1.1 0-1.5 1.1-1.5 2.3v.2h2.9zm3.9-3.4h1.7v1c.4-.8 1.3-1.3 2.3-1.3 1.4 0 2.2.6 2.2 2.4v6.7h-1.8v-6.1c0-1.2-.3-1.6-1.2-1.6-.7 0-1.4.6-1.4 1.7v5.9h-1.8v-8.7zm8.9-3h1.8v1.8H69v-1.8zm0 3h1.8V28H69v-8.9zm7.3-.2c2.6 0 3.3 1.9 3.3 4.7s-.8 4.7-3.3 4.7-3.3-1.9-3.3-4.7.7-4.7 3.3-4.7zm0 8c1.3 0 1.5-1.1 1.5-3.3 0-2-.2-3.3-1.5-3.3s-1.5 1.4-1.5 3.3c0 2.2.2 3.3 1.5 3.3zm5.3-7.8h1.8v1.4c.4-1 1.1-1.6 2.1-1.6.2 0 .3 0 .4.1v1.8c-.1 0-.4-.1-.7-.1-.8 0-1.8.4-1.8 2V28h-1.8v-8.9z"/><path fill="#5EA85A" d="M87.7 16.2h1.4v3.9c.4-.7 1.3-1.2 2.1-1.2 2.3 0 2.3 1.8 2.3 2.8V28h-1.4v-6.1c0-.7 0-1.8-1.3-1.8-.7 0-1.7.5-1.7 1.8V28h-1.4V16.2zm11.2 2.7c2.6 0 3.2 2.2 3.2 4.6s-.6 4.6-3.2 4.6-3.2-2.2-3.2-4.6.7-4.6 3.2-4.6zm1.7 4.6c0-1.9-.3-3.6-1.8-3.6-1.4 0-1.7 1.6-1.7 3.6s.3 3.6 1.7 3.6c1.5 0 1.8-1.7 1.8-3.6zm9.5 4.4h-1.3v-1c-.4.8-1.3 1.3-2.1 1.3-2.3 0-2.3-1.8-2.3-2.8v-6.3h1.4v6.1c0 .7 0 1.8 1.3 1.8.7 0 1.7-.5 1.7-1.8v-6.1h1.4v8.8zm6.4-6.2c0-1.1-.3-1.7-1.3-1.7-.4 0-1.4.1-1.4 1.4 0 1 1.1 1.2 2.2 1.6 1.1.4 2.2.7 2.2 2.5 0 1.9-1.2 2.8-2.8 2.8-3 0-3-2.2-3-3.1h1.4c0 1.1.3 2 1.6 2 .4 0 1.5-.2 1.5-1.5 0-1.2-1.1-1.4-2.2-1.8-1.1-.4-2.2-.7-2.2-2.5 0-1.6 1.3-2.4 2.8-2.4 2.6 0 2.7 1.8 2.7 2.8h-1.5zm3.9-5.5h1.4v1.6h-1.4v-1.6zm0 2.9h1.4v8.8h-1.4v-8.8zm4.1 0h1.3v1c.4-.8 1.3-1.3 2.1-1.3 2.3 0 2.3 1.8 2.3 2.8v6.3h-1.4v-6.1c0-.7 0-1.8-1.3-1.8-.7 0-1.7.5-1.7 1.8v6.1h-1.4v-8.8zm14.2 8.3c0 2.6-1.2 3.6-3 3.6-.5 0-2.7 0-2.9-2.2h1.4c.1.8.7 1.1 1.4 1.1 1.8 0 1.7-1.4 1.7-2v-1.2c-.3.7-1.1 1.2-2 1.2-2.6 0-2.7-3.2-2.7-4.4 0-2.4.6-4.6 2.9-4.6 1 0 1.7.7 1.9 1.4v-1.1h1.3v8.2zm-4.7-3.9c0 1.4.2 3.2 1.6 3.2 1.5 0 1.8-1.4 1.8-3.2 0-1.7-.3-3.5-1.8-3.5-1.2.1-1.6 1.4-1.6 3.5z"/><path fill="#62269E" d="M141.3 19.1h1.7v1c.4-.8 1.3-1.3 2.3-1.3 1.4 0 2.2.6 2.2 2.4v6.7h-1.8v-6.1c0-1.2-.3-1.6-1.2-1.6-.7 0-1.4.6-1.4 1.7v5.9h-1.8v-8.7zm10.1 4.6v.5c0 1.2.1 2.7 1.5 2.7 1.3 0 1.4-1.4 1.4-2h1.7c0 2-1.2 3.2-3.1 3.2-1.4 0-3.2-.4-3.2-4.5 0-2.3.5-4.8 3.3-4.8 2.5 0 3.1 1.5 3.1 4v.9h-4.7zm2.9-1.2V22c0-1.1-.4-2-1.4-2-1.1 0-1.5 1.1-1.5 2.3v.2h2.9zm3.3-3.4h1.2v-2.5h1.8v2.5h1.4v1.3h-1.4v5.3c0 .7.2.9.8.9h.6v1.3c-.4.1-.9.1-1.4.1-1.2 0-1.8-.3-1.8-2.1v-5.5h-1.2v-1.3z"/></svg></svg>